<svg xmlns="http://www.w3.org/2000/svg"><symbol id="angle-bottom-dark" viewBox="0 0 320 34.1"><path d="M320 34.1H160L320 0zm-320 0h160L0 0z"/></symbol><symbol id="angle-bottom" viewBox="0 0 320 34.1"><path d="M320 34.1H160L320 0zm-320 0h160L0 0z"/></symbol><symbol id="arrow-left" viewBox="0 0 12 12"><path d="M12 12L0 6l12-6z"/></symbol><symbol id="arrow-right" viewBox="0 0 12 12"><path d="M12 12L0 6l12-6z"/></symbol><symbol id="beard-1" viewBox="0 0 51.5 49.5"><path d="M50.9 0h-.2c-2.3 7.7-2.9 17.1-9.4 20.6-1.2-3.4-4.1-4.9-7.4-6.4-2.1-.9-4.5-2.6-6.6-2.6-.5 0-1 0-1.5.3-.5-.3-1-.3-1.5-.3-2.1.1-4.5 1.7-6.6 2.6-3.3 1.5-6.3 3-7.4 6.4C3.8 17.1 3.2 7.7.9 0H.6C.3.7.2 1.6 0 2.4c0 1.9.5 21.5 1.9 28.4C3.2 37.2 8 41.7 12.7 44.7c3.3 2.1 8.5 4.8 13 4.8s9.7-2.8 13-4.8c4.7-3 9.6-7.5 10.8-13.8 1.4-7 1.9-26.5 1.9-28.4-.1-.9-.2-1.8-.5-2.5zM37 28.1c-.2 1.6-1.7 3.4-3.4 3.5-3 .2-4.5-4.4-7.9-4.4-3.4 0-4.9 4.5-7.9 4.4-1.7-.1-3.1-1.9-3.4-3.5-.3-1.9.6-4.6 1.7-5.6 1.1-1.1 2.8-.9 4.7-1.2 2-.3 3.8-.9 4.9-1.9 1.1 1.1 2.8 1.7 4.9 1.9 1.9.3 3.6.1 4.7 1.2 1.1 1 2 3.7 1.7 5.6z"/></symbol><symbol id="beard-2" viewBox="0 0 57.7 68.6"><path d="M51.6 22.2c.1-1.7.5-3.5.7-5.4.7-5.4 1.6-11.7-.1-16.8H52c-1.3 3.7-1.3 8.3-2.2 12.4-.7 3-1.8 5.7-3.2 7.6-.5.7-1.1 1.5-1.9 1.8-.7-3.9-4.3-4.9-7.7-6.4-2.1-.9-4-2-6.1-2.2-.8-.1-1.5.2-2 .2s-1.2-.3-2-.2c-2.1.1-4 1.3-6.1 2.2-3.4 1.4-7 2.4-7.7 6.4-.9-.3-1.4-1.1-1.9-1.8-1.5-1.9-2.6-4.6-3.2-7.6C7 8.3 7 3.7 5.7 0h-.2c-1.7 5.1-.8 11.4-.1 16.8.2 1.9.6 3.7.7 5.4.8 11.1-7 23.1-6 28.9.9 7.5 8.4 9.4 14.2 12.4 4.3 2.2 8.3 5 13.3 5.2h2.6c5-.2 9-2.9 13.3-5.2 5.8-3 13.2-4.8 14.2-12.4.9-5.8-6.9-17.8-6.1-28.9zm-22.8 3.7c-2.5 0-5.1-.1-7.2-.5.7-2.1 4-1.6 7.1-1.6h.2c3 0 6.4-.5 7.1 1.6-2.1.5-4.6.6-7.2.5z"/></symbol><symbol id="beard-3" viewBox="0 0 62.4 78.5"><path d="M62.4 42c0-5.2-2.4-7.8-3.6-10-.9-1.6-4-10.8-4.2-17.6C54.5 9.5 52.9 2 51.7 0c-.9 0-1.5 7.8-2.3 11.6-1.4 7-3.8 8.9-4.4 9-.8-2.8-4.1-7.4-13.7-7.7h-.2c-9.6.4-12.9 4.9-13.7 7.7-.7-.1-3-2-4.4-9C12.2 7.8 11.5 0 10.7 0 9.5 2 7.9 9.5 7.8 14.4c-.2 6.9-3.3 16-4.2 17.6C2.4 34.2 0 36.8 0 42c0 3.7 5.2 7.2 5.6 11.4.1 1.2 0 2.3.1 3.4 2 17.5 17.9 21.7 25.4 21.7 7.6 0 23.4-4.2 25.4-21.7.2-1 0-2.1.1-3.4.6-4.2 5.8-7.7 5.8-11.4zM33.2 26.8c-.7-.1-3.4-.1-4.1 0-1.7.3-5.8 1-5.8-1.1 0-1.1 6.7-2.3 7.8-2.3 1.1 0 7.8 1.2 7.8 2.3.1 2-3.9 1.4-5.7 1.1z"/></symbol><symbol id="beard-4" viewBox="0 0 57 97.7"><path d="M51.1 15.2c-.4-5.4-.6-10.8-2.5-15.2-.8 0-1.5 7.3-2.3 10.9-1.5 7.1-3.7 8.3-4.4 8.3-.9-3.9-4.4-4.2-7.8-5.9-1.2-.6-2.3-1.1-3.6-1.2-.7-.1-1.3.1-2 .1s-1.3-.2-2-.1c-1.3.1-2.4.6-3.6 1.2-3.4 1.6-6.9 2-7.8 5.9-.7 0-3-1.1-4.4-8.3C9.9 7.3 9.2 0 8.4 0 6.5 4.4 6.3 9.8 5.9 15.2 5 38.8 0 51.5 0 62.4c0 26.1 11.7 35.3 28.5 35.3S57 88.5 57 62.4c0-10.9-5-23.6-5.9-47.2zM34.4 25c-2.8 1.2-5.4-.7-5.9-.7h-.2c-.5 0-3.1 1.9-5.9.7-.8-3.6 2.4-4 5.9-3.9 3.7-.2 6.9.3 6.1 3.9z"/></symbol><symbol id="beard-5" viewBox="0 0 44.7 104.8"><path d="M44 0h-.1c-2.8 21.5-5.4 22.6-7 22.7-1.4.1-3.6-1.8-4.9-2.5-1.5-.9-4.1-2.5-9.1-2.5s-7.6 1.7-9.1 2.5c-1.3.7-3.5 2.6-4.9 2.5C7.4 22.6 4.8 21.5 2 0h-.1C-.2 12.2.3 50.2 3.1 63.6c2.6 18.5 10.1 35.1 13.4 39.6.7 1 3.5 1.6 6.4 1.6 2.9 0 5.7-.5 6.4-1.6 3.3-4.5 10.8-21.1 13.4-39.6C45.5 50.2 46 12.2 44 0zM22.9 28.2c-3.4 0-6.7.2-10.1.5 1.1-1.8 9-3.2 10.1-3.4 1.1.2 9 1.7 10.1 3.4-3.4-.4-6.7-.5-10.1-.5z"/></symbol><symbol id="beard-icon" viewBox="0 0 22.1 21.2"><path d="M21.8 0h-.1c-1 3.3-1.3 7.3-4 8.8-.5-1.4-1.8-2.1-3.2-2.7-.9-.4-1.9-1.1-2.8-1.1-.2 0-.4 0-.6.1-.3-.1-.5-.1-.7-.1-.9 0-1.9.7-2.8 1.1-1.5.7-2.7 1.3-3.2 2.7-2.8-1.5-3-5.6-4-8.8H.3C.1.3.1.7 0 1c0 .8.2 9.2.8 12.2.5 2.7 2.6 4.6 4.6 5.9 1.4.9 3.6 2.1 5.6 2.1 1.9 0 4.2-1.2 5.6-2.1 2-1.3 4.1-3.2 4.6-5.9.6-3 .8-11.4.8-12.2 0-.3-.1-.7-.2-1zm-6 12c-.1.7-.7 1.5-1.4 1.5-1.3.1-1.9-1.9-3.4-1.9-1.4 0-2.1 1.9-3.4 1.9-.7 0-1.3-.8-1.4-1.5-.1-.8.3-2 .7-2.4.5-.5 1.2-.4 2-.5.9-.1 1.7-.4 2.1-.8.5.5 1.2.7 2.1.8.8.1 1.5.1 2 .5.5.5.9 1.6.7 2.4z"/></symbol><symbol id="checkbox-tick" viewBox="0 0 21.7 16.1"><path d="M21.4.3c-.4-.4-1-.4-1.4 0L6.6 13.7 1.7 8.8c-.4-.4-1-.4-1.4 0-.4.4-.4 1 0 1.4l5.6 5.6c.2.2.5.3.7.3.3 0 .5-.1.7-.3L21.4 1.7c.4-.4.4-1 0-1.4z"/></symbol><symbol id="clock" viewBox="0 0 141.7 139.5"><path d="M71.8 21.5V1c0-.6-.4-1-1-1s-1 .4-1 1v20.5h1c.4-.1.7 0 1 0zm-26 6.9c.6-.3 1.1-.7 1.7-1L37.3 9.7c-.3-.5-.9-.6-1.4-.4-.5.3-.6.9-.4 1.4l10.3 17.7zm-35.3 6.3c-.3.5-.1 1.1.4 1.4l17.7 10.3c.3-.6.7-1.2 1-1.7L11.9 34.4c-.5-.3-1.1-.2-1.4.3zm95.9-26.2c-.5-.3-1.1-.1-1.4.4L94.2 27.5c.6.3 1.2.7 1.7 1l10.8-18.6c.4-.5.2-1.1-.3-1.4zm25.4 27.2c.5-.3.6-.9.4-1.4-.3-.5-.9-.6-1.4-.4l-18.6 10.8c.3.6.7 1.1 1 1.7l18.6-10.7zM22.5 69.8v-1H1c-.6 0-1 .4-1 1s.4 1 1 1h21.5v-1zm118.2-1h-21.5v2h21.5c.6 0 1-.4 1-1s-.5-1-1-1zm-9.9 34.6l-17.7-10.3c-.3.6-.7 1.2-1 1.7l17.7 10.3c.2.1.3.1.5.1.3 0 .7-.2.9-.5.2-.4.1-1-.4-1.3zm-120.9.5c-.5.3-.6.9-.4 1.4.2.3.5.5.9.5.2 0 .3 0 .5-.1l18.6-10.8c-.3-.6-.7-1.1-1-1.7L9.9 103.9zm86 7.2c-.6.3-1.1.7-1.7 1l10.2 17.7c.2.3.5.5.9.5.2 0 .3 0 .5-.1.5-.3.6-.9.4-1.4l-10.3-17.7zm-61 18.6c-.3.5-.1 1.1.4 1.4.2.1.3.1.5.1.3 0 .7-.2.9-.5l10.8-18.6c-.6-.3-1.2-.7-1.7-1l-10.9 18.6zm34.9-11.6v20.5c0 .6.4 1 1 1s1-.4 1-1v-20.5h-2zm34.9-66.2c.7-.4 1-1.3.5-2-.4-.7-1.3-1-2-.5L74.8 65.7c-1-1-2.4-1.6-4-1.6-1.5 0-2.9.6-4 1.6L46.5 53.9c-.7-.4-1.6-.2-2.1.5-.4.7-.2 1.6.5 2.1l20.3 11.8c-.1.5-.2.9-.2 1.4 0 3.1 2.5 5.7 5.7 5.7 3.1 0 5.7-2.5 5.7-5.7 0-.5-.1-1-.2-1.4l28.5-16.4zM75.3 66.3zm.4.6zm-9.7 0c-.1 0-.1 0 0 0-.1 0-.1 0 0 0zm.4-.6s-.1 0 0 0c-.1 0 0 0 0 0zm4.4 6.1c-1.5 0-2.7-1.2-2.7-2.7s1.2-2.7 2.7-2.7c1.5 0 2.7 1.2 2.7 2.7s-1.2 2.7-2.7 2.7z"/></symbol><symbol id="icon-cross" viewBox="0 0 25.9 25.9"><path d="M.4 24.2c-.4.4-.5 1.1-.1 1.5.3.3 1 .3 1.4-.1L25.6 1.7c.4-.4.4-1.1.1-1.4s-1.1-.3-1.5.1L.4 24.2z"/><path d="M.3.3C-.1.7 0 1.4.4 1.8l23.8 23.8c.4.4 1.1.5 1.5.1.4-.4.3-1.1-.1-1.5L1.7.4C1.3-.1.6-.1.3.3z"/></symbol><symbol id="icon-facebook" viewBox="0 0 10.15 21.74"><path d="M3.34 1.12A4.77 4.77 0 0 1 6.53 0h3.61v3.81H7.81a1.07 1.07 0 0 0-1.09.83v2.55h3.42c-.08 1.23-.24 2.45-.41 3.67h-3v10.87H2.21V10.86H0V7.21h2.19V3.66a3.83 3.83 0 0 1 1.15-2.54z"/></symbol><symbol id="icon-insta" viewBox="0 0 512 512"><path d="M480 0H32C14.3 0 0 14.3 0 32v448c0 17.7 14.3 32 32 32h448c17.7 0 32-14.3 32-32V32c0-17.7-14.3-32-32-32zM192 256s5.1-64 64-64 64 64 64 64 1.8 64-64 64-64-64-64-64zm256 192H64V224h68.5c-2.7 10.3-4.5 20.9-4.5 32 0 70.7 57.3 128 128 128s128-57.3 128-128c0-11.1-1.9-21.7-4.5-32H448v224zm0-288h-96V64h96v96z"/></symbol><symbol id="icon-menu-open" viewBox="0 0 35.9 19.9"><path d="M0 10c0 .5.5 1 1.1 1h33.7c.6 0 1.1-.4 1.1-1 0-.5-.5-1-1.1-1H1.1C.5 9 0 9.5 0 10zM1.1 0C.5 0 0 .4 0 1c0 .5.5 1 1.1 1h33.7c.6 0 1.1-.4 1.1-1 0-.5-.5-1-1.1-1H1.1zM0 19c0 .5.5 1 1.1 1h33.7c.6 0 1.1-.4 1.1-1 0-.5-.5-1-1.1-1H1.1c-.6 0-1.1.4-1.1 1z"/></symbol><symbol id="icon-vk" viewBox="0 0 26.14 14.91"><path d="M26 13.47l-.09-.17a13.55 13.55 0 0 0-2.6-3q-.87-.83-1.1-1.12A1 1 0 0 1 22 8a10.27 10.27 0 0 1 1.22-1.78l.88-1.16q2.35-3.13 2-4L26 .94a.8.8 0 0 0-.4-.22 2.14 2.14 0 0 0-.87 0h-3.92a.51.51 0 0 0-.27 0h-.3a.6.6 0 0 0-.15.14.93.93 0 0 0-.14.24 22.22 22.22 0 0 1-1.46 3.06q-.5.84-.93 1.46a7 7 0 0 1-.71.91 4.94 4.94 0 0 1-.52.47q-.23.18-.35.15l-.23-.05a.9.9 0 0 1-.31-.33 1.49 1.49 0 0 1-.16-.53V1.6a3.14 3.14 0 0 0 0-.62 2.12 2.12 0 0 0-.14-.44.73.73 0 0 0-.28-.33 1.57 1.57 0 0 0-.46-.18A9 9 0 0 0 12.57 0a8.93 8.93 0 0 0-3.25.33 1.83 1.83 0 0 0-.52.41q-.25.3-.07.33a1.67 1.67 0 0 1 1.16.59l.08.16a2.6 2.6 0 0 1 .19.63 6.32 6.32 0 0 1 .12 1 10.59 10.59 0 0 1 0 1.7q-.07.71-.13 1.1a2.21 2.21 0 0 1-.18.64 2.69 2.69 0 0 1-.16.3l-.07.07a1 1 0 0 1-.37.07.86.86 0 0 1-.46-.19 3.27 3.27 0 0 1-.56-.52 7 7 0 0 1-.66-.93q-.37-.6-.76-1.42l-.22-.39q-.2-.38-.56-1.11t-.62-1.43A.9.9 0 0 0 5.2.9h-.07a.93.93 0 0 0-.22-.16A1.44 1.44 0 0 0 4.6.65L.87.68A1 1 0 0 0 .1.94L0 1a.44.44 0 0 0 0 .22 1.08 1.08 0 0 0 .08.37Q.9 3.53 1.86 5.31t1.66 2.87Q4.23 9.27 5 10.24t1 1.24l.37.41.34.33a8.06 8.06 0 0 0 1 .78 16.34 16.34 0 0 0 1.4.9 7.6 7.6 0 0 0 1.79.72 6.19 6.19 0 0 0 2 .22h1.57a1.08 1.08 0 0 0 .72-.3l.05-.07a.9.9 0 0 0 .1-.25 1.38 1.38 0 0 0 0-.37 4.48 4.48 0 0 1 .09-1.05 2.77 2.77 0 0 1 .23-.71 1.74 1.74 0 0 1 .29-.4 1.19 1.19 0 0 1 .23-.2h.11a.86.86 0 0 1 .77.21 4.52 4.52 0 0 1 .83.79q.39.47.93 1.05a6.41 6.41 0 0 0 1 .87l.27.16a3.31 3.31 0 0 0 .71.3 1.53 1.53 0 0 0 .76.07l3.48-.05a1.58 1.58 0 0 0 .8-.17.68.68 0 0 0 .34-.37 1.06 1.06 0 0 0 0-.46 1.71 1.71 0 0 0-.1-.36z"/></symbol><symbol id="lock" viewBox="0 0 15 15"><path d="M11.25 6.56V3.75a3.75 3.75 0 1 0-7.5 0v2.81a1.88 1.88 0 0 0-1.88 1.88v4.69A1.87 1.87 0 0 0 3.75 15h7.5a1.88 1.88 0 0 0 1.88-1.88V8.44a1.88 1.88 0 0 0-1.88-1.87zM8 11.11v1.55a.47.47 0 0 1-.94 0v-1.55a.92.92 0 0 1-.47-.79.94.94 0 1 1 1.87 0 .92.92 0 0 1-.47.79zm1.37-4.55H5.63V3.75a1.87 1.87 0 1 1 3.75 0v2.81z"/></symbol><symbol id="login" viewBox="0 0 16 16"><path d="M0 7h7.01V4.06l3.95 3.95-3.95 3.9V9.06L0 9.02V7z"/><path d="M7.01 0v2h7.02v11.99H7.01V16H16V0H7.01z"/></symbol><symbol id="logotype-desktop" viewBox="0 0 369.5 153"><g><path d="M119.9 11.4C127 9 127.6 0 120.5 0c-1.9 0-4.3 1.4-5.9 4.2L105 20.7c-.4.8-.9 1.4-1.4 2-2.5-3.4-1.7-8.5 1.7-10.7l-1.4-1.8c-7.5 4.8-5.3 18.5 7.2 18.5 10.7 0 15.6-12.7 8.8-17.3zM111.1 26c-2.1 0-3.8-.5-5.1-1.2.6-.7 1.2-1.6 1.8-2.5l6-10.4 1 .1c8.2 1.7 4.9 14-3.7 14zm3.8-16.2l2.9-4.9c2.6-4.5 5.9-1.8 4.1 1.5-1.4 2.5-3.4 3.3-7 3.4z"/><path d="M259.2 19l-.2.3c-2 2.3-4.3 4.2-6.5 5 .6-.9 1-1.9 1.5-2.7l3.9-6.7c3.3-5.6-2.1-7.5-5.7-4.3l.7-1.2h-3.6l-5.6 9.7-.2.3c-1.6 1.7-3.6 2.6-5.4 2.6l3.4-5.8c2.2-3.7.2-7.3-3.2-7.3-2.7 0-4.9 1.1-6.9 4.7l-1.7 3-1.5 2.5-.2.2c-2.6 3-5.1 5.3-6.6 5.3-.8 0-1.2-.5-.4-1.9l5.1-9c1.5-2.7.1-4.7-1.9-4.7-1.5 0-3.2.9-5 2.7l5.7-9.9h-3.6L211.4 19l-.2.2c-1.3 1.5-2.9 2.9-4.3 3.9 1.1-3.4.9-8.6 3.1-13.1l-2.7-1.4c-1.5 2-4.7 6.7-7.9 10.4l-.2.3c-2.6 3-5.1 5.3-6.6 5.3-.8 0-1.2-.5-.4-1.9l3.6-6.2c1.2-2.2.6-3.4-.5-4.8l-2-2.4c-.5-.7-.5-1.4.2-2.1l-1.8-2c-2 1.8-2.2 3.8-.9 5.5l.2.3c-1.6 2.2-3.7 5.2-6 8l-.2.3c-2.6 3-5.9 5.3-8.3 5.3-2.2 0-3.5-1.4-1.8-4.2l.3-.6c2.3 1 6.6.5 9.3-4.1l.5-.9c1.9-3.3.1-5.7-2.8-5.7s-5.2 1.5-6.7 4.1l-3.4 5.9-.2.2c-1.6 1.8-3.6 2.6-5.4 2.6l3.4-5.8c.9-1.6 1.3-2.9 1.3-4.1 0-1.8-1.2-3.2-3.2-3.2-.9 0-1.6.3-2.3.8l4.5-7.8h-3.6l-10 17.2-.2.2c-2.6 3-5.1 5.3-6.6 5.3-.8 0-1.2-.5-.4-1.9l3.6-6.2c1.2-2.2.6-3.4-.5-4.8l-2-2.4c-.5-.7-.5-1.4.2-2.1l-1.8-2c-2 1.8-2.2 3.8-.9 5.5l.3.4c-1.6 2.2-3.7 5.2-6 8l-.2.3c-2.6 3-5.1 5.3-6.6 5.3-.8 0-1.2-.5-.4-1.9l5.7-10.1h-2c.1-1.5-1.4-3.6-3.7-3.6-1.9 0-4.6 1.5-6.1 4.1l-5 8.6c-1.5 2.6-.4 5.1 2.4 5.1 1.4 0 3.2-.9 4.9-2.3.2 1.4 1.3 2.3 3.1 2.3 2.9 0 6.3-3.1 9.3-6.6 1.7-2 3-3.8 5.9-7.6l.5.6c.4.6.6 1.3.2 2l-3.8 6.5c-1.5 2.6-.4 5.1 2.4 5.1 2.1 0 4.3-1.5 6.5-3.7 0 2.4 1.8 3.8 4.1 3.8 2 0 4.3-1 6.1-3.3h.8c1.3 0 3.1-.5 4.7-1.4-.2 2.6 1.7 4.5 4.8 4.5 4 0 8-3.1 11-6.6 1.7-2 3-3.8 5.9-7.6l.5.6c.4.6.6 1.3.2 2l-3.8 6.5c-1.5 2.6-.4 5.1 2.4 5.1 2.9 0 6.3-3.1 9.3-6.6 2-2.3 3.8-4.8 5.1-6.5-1.4 3.7-.6 10.3-4 10.3-1.2 0-1.7-1.3-1.7-1.3l-2.2 1.2s.6 2.9 3.9 2.9c.3 0 .6 0 1-.1h.1c1.9-.2 3.7-1.1 5.5-2.4l-1.2 2.1h3.6l5.4-9.4c5.5-6.9 7.9-6 6.4-3.4l-4.6 8c-1.5 2.6-.4 5.1 2.4 5.1 2.1 0 4.4-1.6 6.6-3.7 0 4.5 6.3 5.4 10.1.6h.8c1.1 0 2.5-.3 3.8-.9l-6.5 11.2h3.6l10.6-18.5c4-5.4 6.5-3.4 5.5-1.8l-5.4 9.3c-.6 1-1.9 1.3-2.6 0l-2 1s.6 2.9 3.9 2.9h.2c5.2-.1 8.6-3.2 11.5-6.6-.7-.5-1.3-1-1.8-1.1zm-81-5c2.1-3.5 5.7-2.9 3.6.8l-.5.9c-1.7 2.9-4 2.8-5.3 2.4l2.2-4.1zm-45.6 5.6c-2.2 3.4-4.3 5-5.7 5-.8 0-1.2-.5-.4-1.9l5-8.7c1.9-3.3 5.7-2.5 4 .8l-2.9 4.8zm26.8 4.8c-.8 0-1.4-.5-1.4-1.4 0-.5.2-1.1.6-1.8l1.3-2.2c.3 1.5 1 2.9 2.3 3.7-.8 1.2-1.9 1.7-2.8 1.7zm3.7-3.4c-.9-.7-1.5-1.8-1.5-3.2 0-2.5 2.5-6.7 4.5-6.7.8 0 1.3.6 1.3 1.5 0 .6-.2 1.3-.7 2.1l-3.6 6.3zm73.1-1.8h-.2c-1.2 0-2.1 1-2.1 2.1 0 .4.1.9.3 1.2v.1c-1.7 2.9-5.7 2.3-3.6-1.4l2.7-4.7 1.7-2.9c2.5-4.2 5.9-2.6 3.8 1.1l-2.6 4.5z"/></g><path d="M-.001 73.238l5.729-5.727 5.727 5.73-5.73 5.726zm352.013.002l5.728-5.726 5.727 5.728-5.728 5.727z"/><g><path d="M46.8 73.5h2.1v-8.3h3.3v-2.1h-5.4zM61.7 75V62.3c0-1.8-1.1-3.3-2.6-4.1.3.6.5 1.3.5 2v12.7c0 1.4-.6 2.6-1.7 3.5.9 1 1.7 2.1 1.7 3.7v14.1c0 2.5-2.1 4.6-4.6 4.6H41.5v2.1h15.6c2.5 0 4.6-2.1 4.6-4.6V82.2c0-1.6-.7-2.7-1.7-3.7 1.1-.8 1.7-2.1 1.7-3.5z"/><path d="M46.8 91.3h2.1V83h3.3v-2.1h-5.4z"/></g><g><path d="M79.8 91.3h2.1V65.2h3.3v-2.1h-5.4z"/><path d="M92.1 58.3c.3.6.5 1.3.5 2v34c0 2.5-2.1 4.6-4.6 4.6H77c-.7 0-1.4-.2-2-.5.7 1.5 2.3 2.6 4.1 2.6h11.1c2.5 0 4.6-2.1 4.6-4.6v-34c-.1-1.9-1.2-3.4-2.7-4.1z"/></g><path d="M112.8 73.5h2.1v-8.3h3.3v-2.1h-5.4zm12.3 9c1.6-.7 2.6-2.3 2.6-4.1V62.3c0-1.8-1.1-3.4-2.6-4.1.3.6.5 1.3.5 2v16.1c0 1.7-1 3.3-2.6 4.1l3.1 18.4h-5.7l.4 2.1h7.4l-3.1-18.4zm-9.4-1.6h-2.9v17.9h-5.3v2.1h7.4V83h1.1z"/><g><path d="M144.8 91.3h2.1V65.2h3.3v-2.1h-5.4z"/><path d="M157.2 58.3c.3.6.5 1.3.5 2v34c0 2.5-2.1 4.6-4.6 4.6H142c-.7 0-1.4-.2-2-.5.7 1.5 2.3 2.6 4.1 2.6h11.1c2.5 0 4.6-2.1 4.6-4.6v-34c-.1-1.9-1.1-3.4-2.6-4.1z"/></g><g><path d="M177.9 91.3h2V65.2h3.3v-2.1h-5.3z"/><path d="M190.2 58.3c.3.6.5 1.3.5 2v34c0 2.5-2.1 4.6-4.6 4.6h-13.6v2.1h15.6c2.5 0 4.6-2.1 4.6-4.6v-34c.1-1.9-1-3.4-2.5-4.1z"/></g><path d="M211.2 57.8v41h-5.3v2.1h7.4V57.8zm32.9 0v41h-5.9l.6 2.1h7.4V57.8zm-12.8 22.1v18.9H226v2.1h7.4V87.2z"/><g><path d="M263.6 83h6.1v-2.1h-8.2c-.7 0-1.4-.2-2-.5.7 1.5 2.3 2.6 4.1 2.6zm2.8 2.7l-2.1.5v5.1h2.1zm10.3-27.4c.3.6.5 1.3.5 2V69l-5.4 1.2v2.6l7.5-1.7v-8.7c-.1-1.9-1.1-3.4-2.6-4.1z"/><path d="M276.7 76.1c.3.6.5 1.3.5 2v16.2c0 2.5-2.1 4.6-4.6 4.6h-11.1c-.7 0-1.4-.2-2-.5.7 1.5 2.3 2.6 4.1 2.6h11.1c2.5 0 4.6-2.1 4.6-4.6V80.1c-.1-1.8-1.1-3.3-2.6-4zm-12.4-13v10.4h2.1v-8.3h3.3v-2.1z"/></g><path d="M298 80.9h-.7v17.9H292v2.1h7.4V85.4zm15.2-23.1h-2.8l-6.2 19.4 6.9 21.6h-6l.5 1.8.1.3h7.5l-6.9-21.6zm17.3 0v41h-5.3v2.1h7.4V57.8z"/><path d="M167.9 123.8h1.4c5.4.3 9.7 1.7 12.4 4.7 2.7-3 7-4.5 12.5-4.7h1.3c12.1.8 17.6 9.5 27.3 13.2 1.4.5 3.2 1.2 4.8 1 2.5-.3 4.1-2.8 3.7-5.6-.3-3-3.3-5.6-6.6-4.2-.5.2-.8.5-1.2.8-.3.2-.5.8-1.2.6-.6-.5 0-1.2.3-1.7 1.1-1.9 2.9-3.2 6.1-3 5.6.4 10.7 5.3 9.8 12.8-1.9 11.2-12.1 14.1-24.2 15.2h-3.9c-12.5-.7-21.4-5.1-28.8-11-7.5 5.8-16.3 10.3-28.9 11h-3.9c-12.2-1.1-22.4-4-24.2-15.5-.7-8.2 4.2-12.2 9.8-12.6 3.1-.2 5 1.1 6.1 3 .3.5.8 1.2.3 1.7-.6.1-.9-.4-1.2-.6-.7-.7-1.5-1.2-2.8-1.2-3.9-.1-6.1 4.2-4.5 7.6.5 1.2 1.8 2.4 3.4 2.5 1.6.1 3.4-.5 4.8-1 1.5-.5 2.7-1.2 3.9-1.9 7.5-4.1 13.2-10.1 23.5-11.1z"/><path d="M361.6 82.902l5.727-5.728 2.051 2.05-5.727 5.729zm-351.922.099l5.727-5.727 2.05 2.05-5.727 5.728z"/><path d="M55.6 69c0 1.4-.6 2.6-1.7 3.5.9 1 1.7 2.1 1.7 3.7v14.1c0 2.5-2.1 4.6-4.6 4.6H35.4V51.7H51c2.5 0 4.6 2 4.6 4.6V69zm-7.4-9.9h-5.4v10.4h5.4V59.1zm0 17.8h-5.4v10.5h5.4V76.9zm35.9-25.2c2.5 0 4.6 2 4.6 4.6v34c0 2.5-2.1 4.6-4.6 4.6H73c-2.5 0-4.6-2.1-4.6-4.6v-34c0-2.5 2-4.6 4.6-4.6h11.1zm-2.9 7.4h-5.4v28.3h5.4V59.1zm33.5 35.7l-3-17.9h-2.8v17.9h-7.4V51.7h15.6c2.5 0 4.5 2 4.5 4.6v16.1c0 1.7-1 3.3-2.6 4.1l3.1 18.4h-7.4zm-.5-35.7h-5.4v10.4h5.4V59.1zm34.9-7.4c2.5 0 4.6 2 4.6 4.6v34c0 2.5-2.1 4.6-4.6 4.6H138c-2.5 0-4.6-2.1-4.6-4.6v-34c0-2.5 2-4.6 4.6-4.6h11.1zm-2.9 7.4h-5.4v28.3h5.4V59.1zm36-7.4c2.5 0 4.6 2 4.6 4.6v34c0 2.5-2.1 4.6-4.6 4.6h-15.6V51.7h15.6zm-2.9 7.4h-5.4v28.3h5.4V59.1zm20.6-7.4h7.4v43.1h-7.4V51.7zm40.3 0v43.1h-7.4L227.4 76v18.8H220V51.7h7.3l5.4 17.7V51.7h7.5zm28.4 17.8c2.5 0 4.6 2 4.6 4.6v16.2c0 2.5-2.1 4.6-4.6 4.6h-11.1c-2.5 0-4.6-2.1-4.6-4.6v-8.9l7.4-1.7v7.7h5.4V76.9h-8.2c-2.5 0-4.6-2-4.6-4.6v-16c0-2.5 2-4.6 4.6-4.6h11.1c2.5 0 4.6 2 4.6 4.6V65l-7.5 1.7v-7.6h-5.4v10.4h8.3zm31.6 3.7l6.9 21.6h-7.5l-.1-.2-5.5-17.7h-.7v17.9H286V51.7h7.4v17.8h.6l5.7-17.8h7.5l-7 21.5zm19-21.5h7.4v43.1h-7.4V51.7z"/></symbol><symbol id="logotype-mobile" viewBox="0 0 225.81 30.04"><title>logotype-mobile</title><path d="M-.003 13.175L3.49 9.682l3.494 3.493-3.494 3.493zm215.127.007l3.493-3.493 3.493 3.493-3.493 3.493z"/><path d="M28.6 13.3h1.28V8.21h2V6.94H28.6v6.36zm9.11.93V6.48A2.79 2.79 0 0 0 36.14 4a2.73 2.73 0 0 1 .29 1.21V13a2.73 2.73 0 0 1-1 2.15 3.18 3.18 0 0 1 1 2.26V26a2.83 2.83 0 0 1-2.79 2.79h-8.28V30h9.56a2.83 2.83 0 0 0 2.79-2.79v-8.57a3.18 3.18 0 0 0-1-2.26 2.73 2.73 0 0 0 1-2.15z"/><path d="M28.6 24.21h1.28v-5.12h2v-1.28H28.6v6.4zm20.18 0h1.27v-16h2V6.94h-3.27v17.27z"/><path d="M56.31 4a2.7 2.7 0 0 1 .29 1.21V26a2.83 2.83 0 0 1-2.79 2.79H47a2.72 2.72 0 0 1-1.21-.29 2.79 2.79 0 0 0 2.53 1.5h6.78a2.83 2.83 0 0 0 2.79-2.79V6.48A2.79 2.79 0 0 0 56.31 4zm12.64 9.3h1.28V8.21h2V6.94h-3.28v6.36zm7.49 5.52A2.73 2.73 0 0 0 78 16.34V6.48A2.78 2.78 0 0 0 76.45 4a2.78 2.78 0 0 1 .29 1.23v9.86a2.73 2.73 0 0 1-1.58 2.48L77 28.77h-3.41L73.8 30h4.52zm-5.75-1.01h-1.74v10.96h-3.24v1.27h4.52V19.09h.67l-.21-1.28zm17.84 6.4h1.27v-16h2V6.94h-3.27v17.27z"/><path d="M96.06 4a2.71 2.71 0 0 1 .29 1.21V26a2.83 2.83 0 0 1-2.79 2.79h-6.77a2.72 2.72 0 0 1-1.21-.29 2.79 2.79 0 0 0 2.49 1.5h6.78a2.83 2.83 0 0 0 2.79-2.79V6.48A2.78 2.78 0 0 0 96.06 4zm12.64 20.21h1.28v-16h2V6.94h-3.28v17.27z"/><path d="M116.24 4a2.73 2.73 0 0 1 .29 1.21V26a2.83 2.83 0 0 1-2.79 2.79h-8.29V30H115a2.83 2.83 0 0 0 2.78-2.79V6.48A2.79 2.79 0 0 0 116.24 4zm12.86-.31v25.08h-3.24v1.27h4.52V3.69h-1.28zm20.11 0v25.08h-3.61l.36 1.27h4.52V3.69h-1.27zm-7.83 13.56v11.52h-3.25v1.27h4.52v-8.36l-1.27-4.43zm19.71 1.84h3.73v-1.28h-5a2.74 2.74 0 0 1-1.22-.29 2.77 2.77 0 0 0 2.49 1.57zm1.73 1.69l-1.27.3v3.13h1.27v-3.43zM169.09 4a2.71 2.71 0 0 1 .29 1.21v5.34l-3.28.76v1.57l4.55-1.05V6.48A2.79 2.79 0 0 0 169.09 4z"/><path d="M169.09 14.87a2.72 2.72 0 0 1 .29 1.21V26a2.83 2.83 0 0 1-2.79 2.79h-6.77a2.72 2.72 0 0 1-1.21-.29 2.79 2.79 0 0 0 2.48 1.5h6.77a2.83 2.83 0 0 0 2.78-2.79v-9.9a2.78 2.78 0 0 0-1.55-2.44zm-7.54-7.93v6.36h1.27V8.21h2.01V6.94h-3.28zm20.59 10.87h-.41v10.96h-3.25v1.27H183v-9.49l-.86-2.74zm9.25-14.12h-1.68l-3.8 11.86 4.21 13.22h-3.67l.35 1.12.04.15h4.55l-4.21-13.21 4.21-13.14zm10.63 0v25.08h-3.25v1.27h4.52V3.69h-1.27zm19.025 15.396l3.492-3.494 1.273 1.273-3.492 3.493zM5.92 19.085l3.493-3.493 1.273 1.273-3.493 3.493z"/><path d="M34 10.54a2.73 2.73 0 0 1-1 2.15 3.18 3.18 0 0 1 1 2.26v8.62a2.83 2.83 0 0 1-2.79 2.79h-9.54V0h9.56A2.8 2.8 0 0 1 34 2.79zm-4.55-6h-3.27v6.36h3.28zm0 10.88h-3.27v6.4h3.28zM51.4 0a2.8 2.8 0 0 1 2.79 2.79v20.77a2.83 2.83 0 0 1-2.79 2.79h-6.77a2.8 2.8 0 0 1-2.79-2.79V2.79A2.78 2.78 0 0 1 44.63 0zm-1.77 4.52h-3.27v17.27h3.28zm20.48 21.83l-1.84-11h-1.74v11H62V0h9.56a2.77 2.77 0 0 1 2.75 2.79v9.86a2.73 2.73 0 0 1-1.58 2.48l1.88 11.22zm-.3-21.83h-3.28v6.36h3.27zM91.15 0a2.8 2.8 0 0 1 2.78 2.79v20.77a2.83 2.83 0 0 1-2.78 2.79h-6.77a2.8 2.8 0 0 1-2.79-2.79V2.79A2.78 2.78 0 0 1 84.38 0zm-1.77 4.52h-3.27v17.27h3.28zM111.33 0a2.8 2.8 0 0 1 2.78 2.79v20.77a2.83 2.83 0 0 1-2.78 2.79h-9.56V0zm-1.77 4.52h-3.27v17.27h3.27zM122.17 0h4.52v26.35h-4.52zm24.61 0v26.35h-4.52L139 14.83v11.52h-4.52V0h4.48l3.31 10.8V0zm17.4 10.88a2.8 2.8 0 0 1 2.82 2.78v9.9a2.83 2.83 0 0 1-2.79 2.79h-6.81a2.8 2.8 0 0 1-2.78-2.79v-5.42l4.52-1.05v4.71h3.27v-6.4h-5a2.78 2.78 0 0 1-2.78-2.79V2.79A2.78 2.78 0 0 1 157.4 0h6.78A2.8 2.8 0 0 1 167 2.79v5.34l-4.6 1.05V4.52h-3.27v6.36zm19.3 2.26l4.22 13.21h-4.55v-.15l-3.39-10.8h-.42v11h-4.52V0h4.52v10.88h.34L183.11 0h4.59zM195.08 0h4.52v26.35h-4.52z"/></symbol><symbol id="logotype-tablet" viewBox="0 0 369.5 100.9"><g><path d="M119.9 11.4C127 9 127.6 0 120.5 0c-1.9 0-4.3 1.4-5.9 4.2L105 20.7c-.4.8-.9 1.4-1.4 2-2.5-3.4-1.7-8.5 1.7-10.7l-1.4-1.8c-7.5 4.8-5.3 18.5 7.2 18.5 10.7 0 15.6-12.7 8.8-17.3zM111.1 26c-2.1 0-3.8-.5-5.1-1.2.6-.7 1.2-1.6 1.8-2.5l6-10.4 1 .1c8.2 1.7 4.9 14-3.7 14zm3.8-16.2l2.9-4.9c2.6-4.5 5.9-1.8 4.1 1.5-1.4 2.5-3.4 3.3-7 3.4z"/><path d="M259.2 19l-.2.3c-2 2.3-4.3 4.2-6.5 5 .6-.9 1-1.9 1.5-2.7l3.9-6.7c3.3-5.6-2.1-7.5-5.7-4.3l.7-1.2h-3.6l-5.6 9.7-.2.3c-1.6 1.7-3.6 2.6-5.4 2.6l3.4-5.8c2.2-3.7.2-7.3-3.2-7.3-2.7 0-4.9 1.1-6.9 4.7l-1.7 3-1.5 2.5-.2.2c-2.6 3-5.1 5.3-6.6 5.3-.8 0-1.2-.5-.4-1.9l5.1-9c1.5-2.7.1-4.7-1.9-4.7-1.5 0-3.2.9-5 2.7l5.7-9.9h-3.6L211.4 19l-.2.2c-1.3 1.5-2.9 2.9-4.3 3.9 1.1-3.4.9-8.6 3.1-13.1l-2.7-1.4c-1.5 2-4.7 6.7-7.9 10.4l-.2.3c-2.6 3-5.1 5.3-6.6 5.3-.8 0-1.2-.5-.4-1.9l3.6-6.2c1.2-2.2.6-3.4-.5-4.8l-2-2.4c-.5-.7-.5-1.4.2-2.1l-1.8-2c-2 1.8-2.2 3.8-.9 5.5l.2.3c-1.6 2.2-3.7 5.2-6 8l-.2.3c-2.6 3-5.9 5.3-8.3 5.3-2.2 0-3.5-1.4-1.8-4.2l.3-.6c2.3 1 6.6.5 9.3-4.1l.5-.9c1.9-3.3.1-5.7-2.8-5.7s-5.2 1.5-6.7 4.1l-3.4 5.9-.2.2c-1.6 1.8-3.6 2.6-5.4 2.6l3.4-5.8c.9-1.6 1.3-2.9 1.3-4.1 0-1.8-1.2-3.2-3.2-3.2-.9 0-1.6.3-2.3.8l4.5-7.8h-3.6l-10 17.2-.2.2c-2.6 3-5.1 5.3-6.6 5.3-.8 0-1.2-.5-.4-1.9l3.6-6.2c1.2-2.2.6-3.4-.5-4.8l-2-2.4c-.5-.7-.5-1.4.2-2.1l-1.8-2c-2 1.8-2.2 3.8-.9 5.5l.3.4c-1.6 2.2-3.7 5.2-6 8l-.2.3c-2.6 3-5.1 5.3-6.6 5.3-.8 0-1.2-.5-.4-1.9l5.7-10.1h-2c.1-1.5-1.4-3.6-3.7-3.6-1.9 0-4.6 1.5-6.1 4.1l-5 8.6c-1.5 2.6-.4 5.1 2.4 5.1 1.4 0 3.2-.9 4.9-2.3.2 1.4 1.3 2.3 3.1 2.3 2.9 0 6.3-3.1 9.3-6.6 1.7-2 3-3.8 5.9-7.6l.5.6c.4.6.6 1.3.2 2l-3.8 6.5c-1.5 2.6-.4 5.1 2.4 5.1 2.1 0 4.3-1.5 6.5-3.7 0 2.4 1.8 3.8 4.1 3.8 2 0 4.3-1 6.1-3.3h.8c1.3 0 3.1-.5 4.7-1.4-.2 2.6 1.7 4.5 4.8 4.5 4 0 8-3.1 11-6.6 1.7-2 3-3.8 5.9-7.6l.5.6c.4.6.6 1.3.2 2l-3.8 6.5c-1.5 2.6-.4 5.1 2.4 5.1 2.9 0 6.3-3.1 9.3-6.6 2-2.3 3.8-4.8 5.1-6.5-1.4 3.7-.6 10.3-4 10.3-1.2 0-1.7-1.3-1.7-1.3l-2.2 1.2s.6 2.9 3.9 2.9c.3 0 .6 0 1-.1h.1c1.9-.2 3.7-1.1 5.5-2.4l-1.2 2.1h3.6l5.4-9.4c5.5-6.9 7.9-6 6.4-3.4l-4.6 8c-1.5 2.6-.4 5.1 2.4 5.1 2.1 0 4.4-1.6 6.6-3.7 0 4.5 6.3 5.4 10.1.6h.8c1.1 0 2.5-.3 3.8-.9l-6.5 11.2h3.6l10.6-18.5c4-5.4 6.5-3.4 5.5-1.8l-5.4 9.3c-.6 1-1.9 1.3-2.6 0l-2 1s.6 2.9 3.9 2.9h.2c5.2-.1 8.6-3.2 11.5-6.6-.7-.5-1.3-1-1.8-1.1zm-81-5c2.1-3.5 5.7-2.9 3.6.8l-.5.9c-1.7 2.9-4 2.8-5.3 2.4l2.2-4.1zm-45.6 5.6c-2.2 3.4-4.3 5-5.7 5-.8 0-1.2-.5-.4-1.9l5-8.7c1.9-3.3 5.7-2.5 4 .8l-2.9 4.8zm26.8 4.8c-.8 0-1.4-.5-1.4-1.4 0-.5.2-1.1.6-1.8l1.3-2.2c.3 1.5 1 2.9 2.3 3.7-.8 1.2-1.9 1.7-2.8 1.7zm3.7-3.4c-.9-.7-1.5-1.8-1.5-3.2 0-2.5 2.5-6.7 4.5-6.7.8 0 1.3.6 1.3 1.5 0 .6-.2 1.3-.7 2.1l-3.6 6.3zm73.1-1.8h-.2c-1.2 0-2.1 1-2.1 2.1 0 .4.1.9.3 1.2v.1c-1.7 2.9-5.7 2.3-3.6-1.4l2.7-4.7 1.7-2.9c2.5-4.2 5.9-2.6 3.8 1.1l-2.6 4.5z"/></g><path d="M-.003 73.233l5.728-5.726 5.727 5.728-5.729 5.727zm351.997-.019l5.729-5.727 5.726 5.729-5.728 5.726z"/><g><path d="M46.8 73.5h2.1v-8.3h3.3v-2.1h-5.4zM61.7 75V62.3c0-1.8-1.1-3.3-2.6-4.1.3.6.5 1.3.5 2v12.7c0 1.4-.6 2.6-1.7 3.5.9 1 1.7 2.1 1.7 3.7v14.1c0 2.5-2.1 4.6-4.6 4.6H41.5v2.1h15.6c2.5 0 4.6-2.1 4.6-4.6V82.2c0-1.6-.7-2.7-1.7-3.7 1.1-.8 1.7-2.1 1.7-3.5z"/><path d="M46.8 91.3h2.1V83h3.3v-2.1h-5.4z"/></g><g><path d="M79.8 91.3h2.1V65.2h3.3v-2.1h-5.4z"/><path d="M92.1 58.3c.3.6.5 1.3.5 2v34c0 2.5-2.1 4.6-4.6 4.6H77c-.7 0-1.4-.2-2-.5.7 1.5 2.3 2.6 4.1 2.6h11.1c2.5 0 4.6-2.1 4.6-4.6v-34c-.1-1.9-1.2-3.4-2.7-4.1z"/></g><path d="M112.8 73.5h2.1v-8.3h3.3v-2.1h-5.4zm12.3 9c1.6-.7 2.6-2.3 2.6-4.1V62.3c0-1.8-1.1-3.4-2.6-4.1.3.6.5 1.3.5 2v16.1c0 1.7-1 3.3-2.6 4.1l3.1 18.4h-5.7l.4 2.1h7.4l-3.1-18.4zm-9.4-1.6h-2.9v17.9h-5.3v2.1h7.4V83h1.1z"/><g><path d="M144.8 91.3h2.1V65.2h3.3v-2.1h-5.4z"/><path d="M157.2 58.3c.3.6.5 1.3.5 2v34c0 2.5-2.1 4.6-4.6 4.6H142c-.7 0-1.4-.2-2-.5.7 1.5 2.3 2.6 4.1 2.6h11.1c2.5 0 4.6-2.1 4.6-4.6v-34c-.1-1.9-1.1-3.4-2.6-4.1z"/></g><g><path d="M177.9 91.3h2V65.2h3.3v-2.1h-5.3z"/><path d="M190.2 58.3c.3.6.5 1.3.5 2v34c0 2.5-2.1 4.6-4.6 4.6h-13.6v2.1h15.6c2.5 0 4.6-2.1 4.6-4.6v-34c.1-1.9-1-3.4-2.5-4.1z"/></g><path d="M211.2 57.8v41h-5.3v2.1h7.4V57.8zm32.9 0v41h-5.9l.6 2.1h7.4V57.8zm-12.8 22.1v18.9H226v2.1h7.4V87.2z"/><g><path d="M263.6 83h6.1v-2.1h-8.2c-.7 0-1.4-.2-2-.5.7 1.5 2.3 2.6 4.1 2.6zm2.8 2.7l-2.1.5v5.1h2.1zm10.3-27.4c.3.6.5 1.3.5 2V69l-5.4 1.2v2.6l7.5-1.7v-8.7c-.1-1.9-1.1-3.4-2.6-4.1z"/><path d="M276.7 76.1c.3.6.5 1.3.5 2v16.2c0 2.5-2.1 4.6-4.6 4.6h-11.1c-.7 0-1.4-.2-2-.5.7 1.5 2.3 2.6 4.1 2.6h11.1c2.5 0 4.6-2.1 4.6-4.6V80.1c-.1-1.8-1.1-3.3-2.6-4zm-12.4-13v10.4h2.1v-8.3h3.3v-2.1z"/></g><path d="M298 80.9h-.7v17.9H292v2.1h7.4V85.4zm15.2-23.1h-2.8l-6.2 19.4 6.9 21.6h-6l.5 1.8.1.3h7.5l-6.9-21.6zm17.3 0v41h-5.3v2.1h7.4V57.8zm31.1 25.102l5.727-5.728 2.05 2.05-5.726 5.729zm-351.923.1l5.728-5.728 2.05 2.05-5.727 5.728z"/><path d="M55.6 69c0 1.4-.6 2.6-1.7 3.5.9 1 1.7 2.1 1.7 3.7v14.1c0 2.5-2.1 4.6-4.6 4.6H35.4V51.7H51c2.5 0 4.6 2 4.6 4.6V69zm-7.4-9.9h-5.4v10.4h5.4V59.1zm0 17.8h-5.4v10.5h5.4V76.9zm35.9-25.2c2.5 0 4.6 2 4.6 4.6v34c0 2.5-2.1 4.6-4.6 4.6H73c-2.5 0-4.6-2.1-4.6-4.6v-34c0-2.5 2-4.6 4.6-4.6h11.1zm-2.9 7.4h-5.4v28.3h5.4V59.1zm33.5 35.7l-3-17.9h-2.8v17.9h-7.4V51.7h15.6c2.5 0 4.5 2 4.5 4.6v16.1c0 1.7-1 3.3-2.6 4.1l3.1 18.4h-7.4zm-.5-35.7h-5.4v10.4h5.4V59.1zm34.9-7.4c2.5 0 4.6 2 4.6 4.6v34c0 2.5-2.1 4.6-4.6 4.6H138c-2.5 0-4.6-2.1-4.6-4.6v-34c0-2.5 2-4.6 4.6-4.6h11.1zm-2.9 7.4h-5.4v28.3h5.4V59.1zm36-7.4c2.5 0 4.6 2 4.6 4.6v34c0 2.5-2.1 4.6-4.6 4.6h-15.6V51.7h15.6zm-2.9 7.4h-5.4v28.3h5.4V59.1zm20.6-7.4h7.4v43.1h-7.4V51.7zm40.3 0v43.1h-7.4L227.4 76v18.8H220V51.7h7.3l5.4 17.7V51.7h7.5zm28.4 17.8c2.5 0 4.6 2 4.6 4.6v16.2c0 2.5-2.1 4.6-4.6 4.6h-11.1c-2.5 0-4.6-2.1-4.6-4.6v-8.9l7.4-1.7v7.7h5.4V76.9h-8.2c-2.5 0-4.6-2-4.6-4.6v-16c0-2.5 2-4.6 4.6-4.6h11.1c2.5 0 4.6 2 4.6 4.6V65l-7.5 1.7v-7.6h-5.4v10.4h8.3zm31.6 3.7l6.9 21.6h-7.5l-.1-.2-5.5-17.7h-.7v17.9H286V51.7h7.4v17.8h.6l5.7-17.8h7.5l-7 21.5zm19-21.5h7.4v43.1h-7.4V51.7z"/></symbol><symbol id="mustache-icon" viewBox="0 0 45 12.9"><path d="M22.5 8.2c1.2 1.7 3.6 4.4 8.8 4.7 7.1.3 13.7-5.2 13.7-7.3-2.8 2.5-7.4 2.7-9.9 1.7C31.3 5.8 32 2.8 29.2.9c-1.6-1.1-3.8-1.2-5.7 0-.3.2-.7.5-1 .8-.3-.3-.7-.6-1-.8-1.9-1.2-4.1-1.1-5.7 0-2.8 2-2.1 4.9-5.9 6.4-2.5 1-7.1.8-9.9-1.7 0 2.1 6.5 7.6 13.7 7.3 5.2-.2 7.6-3 8.8-4.7z"/></symbol><symbol id="scissors-icon" viewBox="0 0 23 20"><path d="M8.5 4c0-2.2-1.8-4-4-4s-4 1.8-4 4 1.8 4 4 4c.6 0 1.1-.1 1.6-.4L8.5 10l-2.4 2.4c-.5-.3-1-.4-1.6-.4-2.2 0-4 1.8-4 4s1.8 4 4 4 4-1.8 4-4c0-.6-.1-1.1-.4-1.6l2.4-2.4 7 7h4L8.1 5.6c.3-.5.4-1 .4-1.6zm-4 2c-1.1 0-2-.9-2-2s.9-2 2-2 2 .9 2 2-.9 2-2 2zm0 12c-1.1 0-2-.9-2-2s.9-2 2-2 2 .9 2 2-.9 2-2 2zm6-8.5c.3 0 .5.2.5.5s-.2.5-.5.5-.5-.2-.5-.5.2-.5.5-.5zm11-8.5h-4l-6 6 2 2 8-8z"/></symbol><symbol id="slider-chair" viewBox="0 0 94.2 88.6"><path d="M87.2 22.4c-.6 1.7-1.1 3.5-1.7 5.2 3 5.8 4.7 12.4 4.7 19.4 0 14.2-7 26.9-17.6 34.7 1.2.7 2.2 1.6 3.1 2.7C86.9 75.8 94.2 62.2 94.2 47c0-9-2.6-17.4-7-24.6zM9.5 70.3h1.3C6.5 63.6 4 55.7 4 47.1 4 23.3 23.3 4 47.1 4 53.9 4 60.3 5.6 66 8.4c.7-1.2 1.5-2.3 2.4-3.3C62 1.9 54.8 0 47.1 0 21.1 0 0 21.1 0 47.1c0 8.5 2.3 16.5 6.2 23.4 1.2-.1 2.3-.2 3.3-.2z"/><path d="M53.5 82c.4-6.1-.9-14 .7-19.1 4.5-.1 9.6.4 13.2-.7 8.2-14.8 12-34 18.4-50.6V9c-.8-3-3.9-3.7-6.7-4.6h-.7C67.8 7.9 66.5 20.5 64 32.1c-15.8-4.2-32.3-.1-32.9 15.1-4.5.1-8 1.2-9.9 3.9-.6 6.7 1.6 10.7 6.6 11.8-1.2 5.3-3.6 9.5-7.2 12.5-6.4.6-15.6-1.6-19.1 2V80c3.2 3.9 12.9 1.2 19.1 2 6.6-3.9 8.5-12.6 11.8-19.7 4.7.4 10.9-.8 14.5.7v19.7c-7.8.5-15.4 1.2-19.1 5.9h44.7c-3.2-5.3-12.4-4.6-19-6.6zM37.7 47.2c.7-11.7 15.4-11.7 25.6-8.5.1 4.7-.5 10.2 1.3 13.2-7-1-17-4.5-26.9-4.7z"/></symbol><symbol id="slider-scissors" viewBox="0 0 94.9 94.2"><path clip-rule="evenodd" d="M90.3 28.4c-2.1-4.8-5-9.3-8.5-13.1-.6 1.3-1.3 2.5-2 3.8 2.6 3 4.7 6.4 6.4 10 1.4-.3 2.7-.5 4.1-.7zM90 43.6c.1 1.2.2 2.3.2 3.5 0 23.8-19.3 43.1-43.1 43.1-.8 0-1.6 0-2.3-.1.1.6.2 1.2.2 1.8 0 .8-.2 1.5-.4 2.2.8 0 1.7.1 2.5.1 26 0 47.1-21.1 47.1-47.1 0-2.1-.2-4.1-.4-6.2-1.2 1-2.5 1.9-3.8 2.7zM4 47.1C4 23.3 23.3 4 47.1 4 55 4 62.3 6.1 68.7 9.8c1.1-.9 2.2-1.7 3.4-2.6C64.8 2.6 56.2 0 47.1 0 21.1 0 0 21.1 0 47.1c0 19.8 12.3 36.8 29.7 43.7-.4-1.5-.6-3.1-.6-4.6C14.3 79.4 4 64.5 4 47.1z"/><path clip-rule="evenodd" d="M38.8 84.9c7.7-2.7 16.3-9.7 14.5-19.8-.9-5.1-4.5-5-7.3-9.3 14.4-12 24.2-28.7 33-46.3h-2c-7.4 5.7-21.9 17-28.4 26.4-2.6 3.8-4.6 9.3-7.3 13.9-4.5 7.7-15.1 21.2-6.6 31.1-1.4 4.6-1.2 12.4 4 12.6 3.3-1.7-1.3-4.6.1-8.6zm8.3-38.8c1.4 0 2.6 1.2 2.6 2.6s-1.2 2.6-2.6 2.6-2.6-1.2-2.6-2.6 1.2-2.6 2.6-2.6zM36.8 75c-1.9-9 7-16.9 11.9-9.3.2 7.5-6.2 15.8-11.9 9.3z"/><path clip-rule="evenodd" d="M56 51.2c14-5.2 30.6-7.8 39-18.5-9.4 1.4-18.1 3.5-27.8 4.6-2.1 6.3-7 9.7-11.2 13.9zM12.3 40c-4.2 12.2 8.4 16 21.8 13.9 3.8-4.8 5.8-10 2-15.9-4.9-7.5-20.9-6.4-23.8 2zm5.3 7.2c-5.1-10.8 12.9-11 14.6-5.2 2.1 7.6-9.1 8-14.6 5.2z"/></symbol><symbol id="slider-stamp" viewBox="0 0 94.2 92"><circle cx="47.1" cy="17.3" r="9.1"/><path d="M67.5 26.4H26.7c-1.6 0-2.8 1.3-2.8 2.8v4.5c0 1.6 1.3 2.8 2.8 2.8h.8v45.4h-.8c-1.6 0-2.8 1.3-2.8 2.8v4.5c0 1.6 1.3 2.8 2.8 2.8h40.8c1.6 0 2.8-1.3 2.8-2.8v-4.5c0-1.5-1.3-2.8-2.8-2.8h-.8V36.5h.8c1.6 0 2.8-1.3 2.8-2.8v-4.5c0-1.5-1.3-2.8-2.8-2.8zM33.7 36.5h13.2L33.7 49.7V36.5zm26.8 45.4H47l13.5-13.5v13.5zm0-28.7L33.7 80V64.9l26.8-26.8v15.1z"/><path d="M47.1 0C21.1 0 0 21.1 0 47.1c0 15.4 7.4 29.1 18.9 37.7v-.1c0-1.5.4-2.9 1.2-4.1C10.3 72.7 4 60.6 4 47.1 4 23.3 23.3 4 47.1 4s43.1 19.3 43.1 43.1c0 13.5-6.3 25.6-16.1 33.5.7 1.2 1.2 2.6 1.2 4.1v.1c11.5-8.6 18.9-22.3 18.9-37.7C94.2 21.1 73.1 0 47.1 0z"/></symbol><symbol id="sprite"><symbol id="angle-bottom" viewBox="0 0 320 34.1"><path d="M320 34.1H160L320 0zm-320 0h160L0 0z"/></symbol><symbol id="arrow-left" viewBox="0 0 12 12"><path d="M12 12L0 6l12-6z"/></symbol><symbol id="arrow-right" viewBox="0 0 12 12"><path d="M12 12L0 6l12-6z"/></symbol><symbol id="beard-1" viewBox="0 0 51.5 49.5"><path d="M50.9 0h-.2c-2.3 7.7-2.9 17.1-9.4 20.6-1.2-3.4-4.1-4.9-7.4-6.4-2.1-.9-4.5-2.6-6.6-2.6-.5 0-1 0-1.5.3-.5-.3-1-.3-1.5-.3-2.1.1-4.5 1.7-6.6 2.6-3.3 1.5-6.3 3-7.4 6.4C3.8 17.1 3.2 7.7.9 0H.6C.3.7.2 1.6 0 2.4c0 1.9.5 21.5 1.9 28.4C3.2 37.2 8 41.7 12.7 44.7c3.3 2.1 8.5 4.8 13 4.8s9.7-2.8 13-4.8c4.7-3 9.6-7.5 10.8-13.8 1.4-7 1.9-26.5 1.9-28.4-.1-.9-.2-1.8-.5-2.5zM37 28.1c-.2 1.6-1.7 3.4-3.4 3.5-3 .2-4.5-4.4-7.9-4.4-3.4 0-4.9 4.5-7.9 4.4-1.7-.1-3.1-1.9-3.4-3.5-.3-1.9.6-4.6 1.7-5.6 1.1-1.1 2.8-.9 4.7-1.2 2-.3 3.8-.9 4.9-1.9 1.1 1.1 2.8 1.7 4.9 1.9 1.9.3 3.6.1 4.7 1.2 1.1 1 2 3.7 1.7 5.6z"/></symbol><symbol id="beard-2" viewBox="0 0 57.7 68.6"><path d="M51.6 22.2c.1-1.7.5-3.5.7-5.4.7-5.4 1.6-11.7-.1-16.8H52c-1.3 3.7-1.3 8.3-2.2 12.4-.7 3-1.8 5.7-3.2 7.6-.5.7-1.1 1.5-1.9 1.8-.7-3.9-4.3-4.9-7.7-6.4-2.1-.9-4-2-6.1-2.2-.8-.1-1.5.2-2 .2s-1.2-.3-2-.2c-2.1.1-4 1.3-6.1 2.2-3.4 1.4-7 2.4-7.7 6.4-.9-.3-1.4-1.1-1.9-1.8-1.5-1.9-2.6-4.6-3.2-7.6C7 8.3 7 3.7 5.7 0h-.2c-1.7 5.1-.8 11.4-.1 16.8.2 1.9.6 3.7.7 5.4.8 11.1-7 23.1-6 28.9.9 7.5 8.4 9.4 14.2 12.4 4.3 2.2 8.3 5 13.3 5.2h2.6c5-.2 9-2.9 13.3-5.2 5.8-3 13.2-4.8 14.2-12.4.9-5.8-6.9-17.8-6.1-28.9zm-22.8 3.7c-2.5 0-5.1-.1-7.2-.5.7-2.1 4-1.6 7.1-1.6h.2c3 0 6.4-.5 7.1 1.6-2.1.5-4.6.6-7.2.5z"/></symbol><symbol id="beard-3" viewBox="0 0 62.4 78.5"><path d="M62.4 42c0-5.2-2.4-7.8-3.6-10-.9-1.6-4-10.8-4.2-17.6C54.5 9.5 52.9 2 51.7 0c-.9 0-1.5 7.8-2.3 11.6-1.4 7-3.8 8.9-4.4 9-.8-2.8-4.1-7.4-13.7-7.7h-.2c-9.6.4-12.9 4.9-13.7 7.7-.7-.1-3-2-4.4-9C12.2 7.8 11.5 0 10.7 0 9.5 2 7.9 9.5 7.8 14.4c-.2 6.9-3.3 16-4.2 17.6C2.4 34.2 0 36.8 0 42c0 3.7 5.2 7.2 5.6 11.4.1 1.2 0 2.3.1 3.4 2 17.5 17.9 21.7 25.4 21.7 7.6 0 23.4-4.2 25.4-21.7.2-1 0-2.1.1-3.4.6-4.2 5.8-7.7 5.8-11.4zM33.2 26.8c-.7-.1-3.4-.1-4.1 0-1.7.3-5.8 1-5.8-1.1 0-1.1 6.7-2.3 7.8-2.3 1.1 0 7.8 1.2 7.8 2.3.1 2-3.9 1.4-5.7 1.1z"/></symbol><symbol id="beard-4" viewBox="0 0 57 97.7"><path d="M51.1 15.2c-.4-5.4-.6-10.8-2.5-15.2-.8 0-1.5 7.3-2.3 10.9-1.5 7.1-3.7 8.3-4.4 8.3-.9-3.9-4.4-4.2-7.8-5.9-1.2-.6-2.3-1.1-3.6-1.2-.7-.1-1.3.1-2 .1s-1.3-.2-2-.1c-1.3.1-2.4.6-3.6 1.2-3.4 1.6-6.9 2-7.8 5.9-.7 0-3-1.1-4.4-8.3C9.9 7.3 9.2 0 8.4 0 6.5 4.4 6.3 9.8 5.9 15.2 5 38.8 0 51.5 0 62.4c0 26.1 11.7 35.3 28.5 35.3S57 88.5 57 62.4c0-10.9-5-23.6-5.9-47.2zM34.4 25c-2.8 1.2-5.4-.7-5.9-.7h-.2c-.5 0-3.1 1.9-5.9.7-.8-3.6 2.4-4 5.9-3.9 3.7-.2 6.9.3 6.1 3.9z"/></symbol><symbol id="beard-5" viewBox="0 0 44.7 104.8"><path d="M44 0h-.1c-2.8 21.5-5.4 22.6-7 22.7-1.4.1-3.6-1.8-4.9-2.5-1.5-.9-4.1-2.5-9.1-2.5s-7.6 1.7-9.1 2.5c-1.3.7-3.5 2.6-4.9 2.5C7.4 22.6 4.8 21.5 2 0h-.1C-.2 12.2.3 50.2 3.1 63.6c2.6 18.5 10.1 35.1 13.4 39.6.7 1 3.5 1.6 6.4 1.6 2.9 0 5.7-.5 6.4-1.6 3.3-4.5 10.8-21.1 13.4-39.6C45.5 50.2 46 12.2 44 0zM22.9 28.2c-3.4 0-6.7.2-10.1.5 1.1-1.8 9-3.2 10.1-3.4 1.1.2 9 1.7 10.1 3.4-3.4-.4-6.7-.5-10.1-.5z"/></symbol><symbol id="beard-icon" viewBox="0 0 22.1 21.2"><path d="M21.8 0h-.1c-1 3.3-1.3 7.3-4 8.8-.5-1.4-1.8-2.1-3.2-2.7-.9-.4-1.9-1.1-2.8-1.1-.2 0-.4 0-.6.1-.3-.1-.5-.1-.7-.1-.9 0-1.9.7-2.8 1.1-1.5.7-2.7 1.3-3.2 2.7-2.8-1.5-3-5.6-4-8.8H.3C.1.3.1.7 0 1c0 .8.2 9.2.8 12.2.5 2.7 2.6 4.6 4.6 5.9 1.4.9 3.6 2.1 5.6 2.1 1.9 0 4.2-1.2 5.6-2.1 2-1.3 4.1-3.2 4.6-5.9.6-3 .8-11.4.8-12.2 0-.3-.1-.7-.2-1zm-6 12c-.1.7-.7 1.5-1.4 1.5-1.3.1-1.9-1.9-3.4-1.9-1.4 0-2.1 1.9-3.4 1.9-.7 0-1.3-.8-1.4-1.5-.1-.8.3-2 .7-2.4.5-.5 1.2-.4 2-.5.9-.1 1.7-.4 2.1-.8.5.5 1.2.7 2.1.8.8.1 1.5.1 2 .5.5.5.9 1.6.7 2.4z"/></symbol><symbol id="checkbox-tick" viewBox="0 0 21.7 16.1"><path d="M21.4.3c-.4-.4-1-.4-1.4 0L6.6 13.7 1.7 8.8c-.4-.4-1-.4-1.4 0-.4.4-.4 1 0 1.4l5.6 5.6c.2.2.5.3.7.3.3 0 .5-.1.7-.3L21.4 1.7c.4-.4.4-1 0-1.4z"/></symbol><symbol id="clock" viewBox="0 0 141.7 139.5"><path d="M71.8 21.5V1c0-.6-.4-1-1-1s-1 .4-1 1v20.5h1c.4-.1.7 0 1 0zm-26 6.9c.6-.3 1.1-.7 1.7-1L37.3 9.7c-.3-.5-.9-.6-1.4-.4-.5.3-.6.9-.4 1.4l10.3 17.7zm-35.3 6.3c-.3.5-.1 1.1.4 1.4l17.7 10.3c.3-.6.7-1.2 1-1.7L11.9 34.4c-.5-.3-1.1-.2-1.4.3zm95.9-26.2c-.5-.3-1.1-.1-1.4.4L94.2 27.5c.6.3 1.2.7 1.7 1l10.8-18.6c.4-.5.2-1.1-.3-1.4zm25.4 27.2c.5-.3.6-.9.4-1.4-.3-.5-.9-.6-1.4-.4l-18.6 10.8c.3.6.7 1.1 1 1.7l18.6-10.7zM22.5 69.8v-1H1c-.6 0-1 .4-1 1s.4 1 1 1h21.5v-1zm118.2-1h-21.5v2h21.5c.6 0 1-.4 1-1s-.5-1-1-1zm-9.9 34.6l-17.7-10.3c-.3.6-.7 1.2-1 1.7l17.7 10.3c.2.1.3.1.5.1.3 0 .7-.2.9-.5.2-.4.1-1-.4-1.3zm-120.9.5c-.5.3-.6.9-.4 1.4.2.3.5.5.9.5.2 0 .3 0 .5-.1l18.6-10.8c-.3-.6-.7-1.1-1-1.7L9.9 103.9zm86 7.2c-.6.3-1.1.7-1.7 1l10.2 17.7c.2.3.5.5.9.5.2 0 .3 0 .5-.1.5-.3.6-.9.4-1.4l-10.3-17.7zm-61 18.6c-.3.5-.1 1.1.4 1.4.2.1.3.1.5.1.3 0 .7-.2.9-.5l10.8-18.6c-.6-.3-1.2-.7-1.7-1l-10.9 18.6zm34.9-11.6v20.5c0 .6.4 1 1 1s1-.4 1-1v-20.5h-2zm34.9-66.2c.7-.4 1-1.3.5-2-.4-.7-1.3-1-2-.5L74.8 65.7c-1-1-2.4-1.6-4-1.6-1.5 0-2.9.6-4 1.6L46.5 53.9c-.7-.4-1.6-.2-2.1.5-.4.7-.2 1.6.5 2.1l20.3 11.8c-.1.5-.2.9-.2 1.4 0 3.1 2.5 5.7 5.7 5.7 3.1 0 5.7-2.5 5.7-5.7 0-.5-.1-1-.2-1.4l28.5-16.4zM75.3 66.3zm.4.6zm-9.7 0c-.1 0-.1 0 0 0-.1 0-.1 0 0 0zm.4-.6s-.1 0 0 0c-.1 0 0 0 0 0zm4.4 6.1c-1.5 0-2.7-1.2-2.7-2.7s1.2-2.7 2.7-2.7c1.5 0 2.7 1.2 2.7 2.7s-1.2 2.7-2.7 2.7z"/></symbol><symbol id="icon-cross" viewBox="0 0 25.9 25.9"><path d="M.4 24.2c-.4.4-.5 1.1-.1 1.5.3.3 1 .3 1.4-.1L25.6 1.7c.4-.4.4-1.1.1-1.4s-1.1-.3-1.5.1L.4 24.2z"/><path d="M.3.3C-.1.7 0 1.4.4 1.8l23.8 23.8c.4.4 1.1.5 1.5.1.4-.4.3-1.1-.1-1.5L1.7.4C1.3-.1.6-.1.3.3z"/></symbol><symbol id="icon-facebook" viewBox="0 0 10.15 21.74"><path d="M3.34 1.12A4.77 4.77 0 0 1 6.53 0h3.61v3.81H7.81a1.07 1.07 0 0 0-1.09.83v2.55h3.42c-.08 1.23-.24 2.45-.41 3.67h-3v10.87H2.21V10.86H0V7.21h2.19V3.66a3.83 3.83 0 0 1 1.15-2.54z"/></symbol><symbol id="icon-insta" viewBox="0 0 512 512"><path d="M480 0H32C14.3 0 0 14.3 0 32v448c0 17.7 14.3 32 32 32h448c17.7 0 32-14.3 32-32V32c0-17.7-14.3-32-32-32zM192 256s5.1-64 64-64 64 64 64 64 1.8 64-64 64-64-64-64-64zm256 192H64V224h68.5c-2.7 10.3-4.5 20.9-4.5 32 0 70.7 57.3 128 128 128s128-57.3 128-128c0-11.1-1.9-21.7-4.5-32H448v224zm0-288h-96V64h96v96z"/></symbol><symbol id="icon-menu-open" viewBox="0 0 35.9 19.9"><path d="M0 10c0 .5.5 1 1.1 1h33.7c.6 0 1.1-.4 1.1-1 0-.5-.5-1-1.1-1H1.1C.5 9 0 9.5 0 10zM1.1 0C.5 0 0 .4 0 1c0 .5.5 1 1.1 1h33.7c.6 0 1.1-.4 1.1-1 0-.5-.5-1-1.1-1H1.1zM0 19c0 .5.5 1 1.1 1h33.7c.6 0 1.1-.4 1.1-1 0-.5-.5-1-1.1-1H1.1c-.6 0-1.1.4-1.1 1z"/></symbol><symbol id="icon-vk" viewBox="0 0 26.14 14.91"><path d="M26 13.47l-.09-.17a13.55 13.55 0 0 0-2.6-3q-.87-.83-1.1-1.12A1 1 0 0 1 22 8a10.27 10.27 0 0 1 1.22-1.78l.88-1.16q2.35-3.13 2-4L26 .94a.8.8 0 0 0-.4-.22 2.14 2.14 0 0 0-.87 0h-3.92a.51.51 0 0 0-.27 0h-.3a.6.6 0 0 0-.15.14.93.93 0 0 0-.14.24 22.22 22.22 0 0 1-1.46 3.06q-.5.84-.93 1.46a7 7 0 0 1-.71.91 4.94 4.94 0 0 1-.52.47q-.23.18-.35.15l-.23-.05a.9.9 0 0 1-.31-.33 1.49 1.49 0 0 1-.16-.53V1.6a3.14 3.14 0 0 0 0-.62 2.12 2.12 0 0 0-.14-.44.73.73 0 0 0-.28-.33 1.57 1.57 0 0 0-.46-.18A9 9 0 0 0 12.57 0a8.93 8.93 0 0 0-3.25.33 1.83 1.83 0 0 0-.52.41q-.25.3-.07.33a1.67 1.67 0 0 1 1.16.59l.08.16a2.6 2.6 0 0 1 .19.63 6.32 6.32 0 0 1 .12 1 10.59 10.59 0 0 1 0 1.7q-.07.71-.13 1.1a2.21 2.21 0 0 1-.18.64 2.69 2.69 0 0 1-.16.3l-.07.07a1 1 0 0 1-.37.07.86.86 0 0 1-.46-.19 3.27 3.27 0 0 1-.56-.52 7 7 0 0 1-.66-.93q-.37-.6-.76-1.42l-.22-.39q-.2-.38-.56-1.11t-.62-1.43A.9.9 0 0 0 5.2.9h-.07a.93.93 0 0 0-.22-.16A1.44 1.44 0 0 0 4.6.65L.87.68A1 1 0 0 0 .1.94L0 1a.44.44 0 0 0 0 .22 1.08 1.08 0 0 0 .08.37Q.9 3.53 1.86 5.31t1.66 2.87Q4.23 9.27 5 10.24t1 1.24l.37.41.34.33a8.06 8.06 0 0 0 1 .78 16.34 16.34 0 0 0 1.4.9 7.6 7.6 0 0 0 1.79.72 6.19 6.19 0 0 0 2 .22h1.57a1.08 1.08 0 0 0 .72-.3l.05-.07a.9.9 0 0 0 .1-.25 1.38 1.38 0 0 0 0-.37 4.48 4.48 0 0 1 .09-1.05 2.77 2.77 0 0 1 .23-.71 1.74 1.74 0 0 1 .29-.4 1.19 1.19 0 0 1 .23-.2h.11a.86.86 0 0 1 .77.21 4.52 4.52 0 0 1 .83.79q.39.47.93 1.05a6.41 6.41 0 0 0 1 .87l.27.16a3.31 3.31 0 0 0 .71.3 1.53 1.53 0 0 0 .76.07l3.48-.05a1.58 1.58 0 0 0 .8-.17.68.68 0 0 0 .34-.37 1.06 1.06 0 0 0 0-.46 1.71 1.71 0 0 0-.1-.36z"/></symbol><symbol id="login" viewBox="0 0 16 16"><path d="M0 7h7.01V4.06l3.95 3.95-3.95 3.9V9.06L0 9.02V7z"/><path d="M7.01 0v2h7.02v11.99H7.01V16H16V0H7.01z"/></symbol><symbol id="logotype-desktop" viewBox="0 0 369.5 153"><g><path d="M119.9 11.4C127 9 127.6 0 120.5 0c-1.9 0-4.3 1.4-5.9 4.2L105 20.7c-.4.8-.9 1.4-1.4 2-2.5-3.4-1.7-8.5 1.7-10.7l-1.4-1.8c-7.5 4.8-5.3 18.5 7.2 18.5 10.7 0 15.6-12.7 8.8-17.3zM111.1 26c-2.1 0-3.8-.5-5.1-1.2.6-.7 1.2-1.6 1.8-2.5l6-10.4 1 .1c8.2 1.7 4.9 14-3.7 14zm3.8-16.2l2.9-4.9c2.6-4.5 5.9-1.8 4.1 1.5-1.4 2.5-3.4 3.3-7 3.4z"/><path d="M259.2 19l-.2.3c-2 2.3-4.3 4.2-6.5 5 .6-.9 1-1.9 1.5-2.7l3.9-6.7c3.3-5.6-2.1-7.5-5.7-4.3l.7-1.2h-3.6l-5.6 9.7-.2.3c-1.6 1.7-3.6 2.6-5.4 2.6l3.4-5.8c2.2-3.7.2-7.3-3.2-7.3-2.7 0-4.9 1.1-6.9 4.7l-1.7 3-1.5 2.5-.2.2c-2.6 3-5.1 5.3-6.6 5.3-.8 0-1.2-.5-.4-1.9l5.1-9c1.5-2.7.1-4.7-1.9-4.7-1.5 0-3.2.9-5 2.7l5.7-9.9h-3.6L211.4 19l-.2.2c-1.3 1.5-2.9 2.9-4.3 3.9 1.1-3.4.9-8.6 3.1-13.1l-2.7-1.4c-1.5 2-4.7 6.7-7.9 10.4l-.2.3c-2.6 3-5.1 5.3-6.6 5.3-.8 0-1.2-.5-.4-1.9l3.6-6.2c1.2-2.2.6-3.4-.5-4.8l-2-2.4c-.5-.7-.5-1.4.2-2.1l-1.8-2c-2 1.8-2.2 3.8-.9 5.5l.2.3c-1.6 2.2-3.7 5.2-6 8l-.2.3c-2.6 3-5.9 5.3-8.3 5.3-2.2 0-3.5-1.4-1.8-4.2l.3-.6c2.3 1 6.6.5 9.3-4.1l.5-.9c1.9-3.3.1-5.7-2.8-5.7s-5.2 1.5-6.7 4.1l-3.4 5.9-.2.2c-1.6 1.8-3.6 2.6-5.4 2.6l3.4-5.8c.9-1.6 1.3-2.9 1.3-4.1 0-1.8-1.2-3.2-3.2-3.2-.9 0-1.6.3-2.3.8l4.5-7.8h-3.6l-10 17.2-.2.2c-2.6 3-5.1 5.3-6.6 5.3-.8 0-1.2-.5-.4-1.9l3.6-6.2c1.2-2.2.6-3.4-.5-4.8l-2-2.4c-.5-.7-.5-1.4.2-2.1l-1.8-2c-2 1.8-2.2 3.8-.9 5.5l.3.4c-1.6 2.2-3.7 5.2-6 8l-.2.3c-2.6 3-5.1 5.3-6.6 5.3-.8 0-1.2-.5-.4-1.9l5.7-10.1h-2c.1-1.5-1.4-3.6-3.7-3.6-1.9 0-4.6 1.5-6.1 4.1l-5 8.6c-1.5 2.6-.4 5.1 2.4 5.1 1.4 0 3.2-.9 4.9-2.3.2 1.4 1.3 2.3 3.1 2.3 2.9 0 6.3-3.1 9.3-6.6 1.7-2 3-3.8 5.9-7.6l.5.6c.4.6.6 1.3.2 2l-3.8 6.5c-1.5 2.6-.4 5.1 2.4 5.1 2.1 0 4.3-1.5 6.5-3.7 0 2.4 1.8 3.8 4.1 3.8 2 0 4.3-1 6.1-3.3h.8c1.3 0 3.1-.5 4.7-1.4-.2 2.6 1.7 4.5 4.8 4.5 4 0 8-3.1 11-6.6 1.7-2 3-3.8 5.9-7.6l.5.6c.4.6.6 1.3.2 2l-3.8 6.5c-1.5 2.6-.4 5.1 2.4 5.1 2.9 0 6.3-3.1 9.3-6.6 2-2.3 3.8-4.8 5.1-6.5-1.4 3.7-.6 10.3-4 10.3-1.2 0-1.7-1.3-1.7-1.3l-2.2 1.2s.6 2.9 3.9 2.9c.3 0 .6 0 1-.1h.1c1.9-.2 3.7-1.1 5.5-2.4l-1.2 2.1h3.6l5.4-9.4c5.5-6.9 7.9-6 6.4-3.4l-4.6 8c-1.5 2.6-.4 5.1 2.4 5.1 2.1 0 4.4-1.6 6.6-3.7 0 4.5 6.3 5.4 10.1.6h.8c1.1 0 2.5-.3 3.8-.9l-6.5 11.2h3.6l10.6-18.5c4-5.4 6.5-3.4 5.5-1.8l-5.4 9.3c-.6 1-1.9 1.3-2.6 0l-2 1s.6 2.9 3.9 2.9h.2c5.2-.1 8.6-3.2 11.5-6.6-.7-.5-1.3-1-1.8-1.1zm-81-5c2.1-3.5 5.7-2.9 3.6.8l-.5.9c-1.7 2.9-4 2.8-5.3 2.4l2.2-4.1zm-45.6 5.6c-2.2 3.4-4.3 5-5.7 5-.8 0-1.2-.5-.4-1.9l5-8.7c1.9-3.3 5.7-2.5 4 .8l-2.9 4.8zm26.8 4.8c-.8 0-1.4-.5-1.4-1.4 0-.5.2-1.1.6-1.8l1.3-2.2c.3 1.5 1 2.9 2.3 3.7-.8 1.2-1.9 1.7-2.8 1.7zm3.7-3.4c-.9-.7-1.5-1.8-1.5-3.2 0-2.5 2.5-6.7 4.5-6.7.8 0 1.3.6 1.3 1.5 0 .6-.2 1.3-.7 2.1l-3.6 6.3zm73.1-1.8h-.2c-1.2 0-2.1 1-2.1 2.1 0 .4.1.9.3 1.2v.1c-1.7 2.9-5.7 2.3-3.6-1.4l2.7-4.7 1.7-2.9c2.5-4.2 5.9-2.6 3.8 1.1l-2.6 4.5z"/></g><path d="M-.001 73.238l5.729-5.727 5.727 5.73-5.73 5.726zm352.013.002l5.728-5.726 5.727 5.728-5.728 5.727z"/><g><path d="M46.8 73.5h2.1v-8.3h3.3v-2.1h-5.4zM61.7 75V62.3c0-1.8-1.1-3.3-2.6-4.1.3.6.5 1.3.5 2v12.7c0 1.4-.6 2.6-1.7 3.5.9 1 1.7 2.1 1.7 3.7v14.1c0 2.5-2.1 4.6-4.6 4.6H41.5v2.1h15.6c2.5 0 4.6-2.1 4.6-4.6V82.2c0-1.6-.7-2.7-1.7-3.7 1.1-.8 1.7-2.1 1.7-3.5z"/><path d="M46.8 91.3h2.1V83h3.3v-2.1h-5.4z"/></g><g><path d="M79.8 91.3h2.1V65.2h3.3v-2.1h-5.4z"/><path d="M92.1 58.3c.3.6.5 1.3.5 2v34c0 2.5-2.1 4.6-4.6 4.6H77c-.7 0-1.4-.2-2-.5.7 1.5 2.3 2.6 4.1 2.6h11.1c2.5 0 4.6-2.1 4.6-4.6v-34c-.1-1.9-1.2-3.4-2.7-4.1z"/></g><path d="M112.8 73.5h2.1v-8.3h3.3v-2.1h-5.4zm12.3 9c1.6-.7 2.6-2.3 2.6-4.1V62.3c0-1.8-1.1-3.4-2.6-4.1.3.6.5 1.3.5 2v16.1c0 1.7-1 3.3-2.6 4.1l3.1 18.4h-5.7l.4 2.1h7.4l-3.1-18.4zm-9.4-1.6h-2.9v17.9h-5.3v2.1h7.4V83h1.1z"/><g><path d="M144.8 91.3h2.1V65.2h3.3v-2.1h-5.4z"/><path d="M157.2 58.3c.3.6.5 1.3.5 2v34c0 2.5-2.1 4.6-4.6 4.6H142c-.7 0-1.4-.2-2-.5.7 1.5 2.3 2.6 4.1 2.6h11.1c2.5 0 4.6-2.1 4.6-4.6v-34c-.1-1.9-1.1-3.4-2.6-4.1z"/></g><g><path d="M177.9 91.3h2V65.2h3.3v-2.1h-5.3z"/><path d="M190.2 58.3c.3.6.5 1.3.5 2v34c0 2.5-2.1 4.6-4.6 4.6h-13.6v2.1h15.6c2.5 0 4.6-2.1 4.6-4.6v-34c.1-1.9-1-3.4-2.5-4.1z"/></g><path d="M211.2 57.8v41h-5.3v2.1h7.4V57.8zm32.9 0v41h-5.9l.6 2.1h7.4V57.8zm-12.8 22.1v18.9H226v2.1h7.4V87.2z"/><g><path d="M263.6 83h6.1v-2.1h-8.2c-.7 0-1.4-.2-2-.5.7 1.5 2.3 2.6 4.1 2.6zm2.8 2.7l-2.1.5v5.1h2.1zm10.3-27.4c.3.6.5 1.3.5 2V69l-5.4 1.2v2.6l7.5-1.7v-8.7c-.1-1.9-1.1-3.4-2.6-4.1z"/><path d="M276.7 76.1c.3.6.5 1.3.5 2v16.2c0 2.5-2.1 4.6-4.6 4.6h-11.1c-.7 0-1.4-.2-2-.5.7 1.5 2.3 2.6 4.1 2.6h11.1c2.5 0 4.6-2.1 4.6-4.6V80.1c-.1-1.8-1.1-3.3-2.6-4zm-12.4-13v10.4h2.1v-8.3h3.3v-2.1z"/></g><path d="M298 80.9h-.7v17.9H292v2.1h7.4V85.4zm15.2-23.1h-2.8l-6.2 19.4 6.9 21.6h-6l.5 1.8.1.3h7.5l-6.9-21.6zm17.3 0v41h-5.3v2.1h7.4V57.8z"/><path d="M167.9 123.8h1.4c5.4.3 9.7 1.7 12.4 4.7 2.7-3 7-4.5 12.5-4.7h1.3c12.1.8 17.6 9.5 27.3 13.2 1.4.5 3.2 1.2 4.8 1 2.5-.3 4.1-2.8 3.7-5.6-.3-3-3.3-5.6-6.6-4.2-.5.2-.8.5-1.2.8-.3.2-.5.8-1.2.6-.6-.5 0-1.2.3-1.7 1.1-1.9 2.9-3.2 6.1-3 5.6.4 10.7 5.3 9.8 12.8-1.9 11.2-12.1 14.1-24.2 15.2h-3.9c-12.5-.7-21.4-5.1-28.8-11-7.5 5.8-16.3 10.3-28.9 11h-3.9c-12.2-1.1-22.4-4-24.2-15.5-.7-8.2 4.2-12.2 9.8-12.6 3.1-.2 5 1.1 6.1 3 .3.5.8 1.2.3 1.7-.6.1-.9-.4-1.2-.6-.7-.7-1.5-1.2-2.8-1.2-3.9-.1-6.1 4.2-4.5 7.6.5 1.2 1.8 2.4 3.4 2.5 1.6.1 3.4-.5 4.8-1 1.5-.5 2.7-1.2 3.9-1.9 7.5-4.1 13.2-10.1 23.5-11.1z"/><path d="M361.6 82.902l5.727-5.728 2.051 2.05-5.727 5.729zm-351.922.099l5.727-5.727 2.05 2.05-5.727 5.728z"/><path d="M55.6 69c0 1.4-.6 2.6-1.7 3.5.9 1 1.7 2.1 1.7 3.7v14.1c0 2.5-2.1 4.6-4.6 4.6H35.4V51.7H51c2.5 0 4.6 2 4.6 4.6V69zm-7.4-9.9h-5.4v10.4h5.4V59.1zm0 17.8h-5.4v10.5h5.4V76.9zm35.9-25.2c2.5 0 4.6 2 4.6 4.6v34c0 2.5-2.1 4.6-4.6 4.6H73c-2.5 0-4.6-2.1-4.6-4.6v-34c0-2.5 2-4.6 4.6-4.6h11.1zm-2.9 7.4h-5.4v28.3h5.4V59.1zm33.5 35.7l-3-17.9h-2.8v17.9h-7.4V51.7h15.6c2.5 0 4.5 2 4.5 4.6v16.1c0 1.7-1 3.3-2.6 4.1l3.1 18.4h-7.4zm-.5-35.7h-5.4v10.4h5.4V59.1zm34.9-7.4c2.5 0 4.6 2 4.6 4.6v34c0 2.5-2.1 4.6-4.6 4.6H138c-2.5 0-4.6-2.1-4.6-4.6v-34c0-2.5 2-4.6 4.6-4.6h11.1zm-2.9 7.4h-5.4v28.3h5.4V59.1zm36-7.4c2.5 0 4.6 2 4.6 4.6v34c0 2.5-2.1 4.6-4.6 4.6h-15.6V51.7h15.6zm-2.9 7.4h-5.4v28.3h5.4V59.1zm20.6-7.4h7.4v43.1h-7.4V51.7zm40.3 0v43.1h-7.4L227.4 76v18.8H220V51.7h7.3l5.4 17.7V51.7h7.5zm28.4 17.8c2.5 0 4.6 2 4.6 4.6v16.2c0 2.5-2.1 4.6-4.6 4.6h-11.1c-2.5 0-4.6-2.1-4.6-4.6v-8.9l7.4-1.7v7.7h5.4V76.9h-8.2c-2.5 0-4.6-2-4.6-4.6v-16c0-2.5 2-4.6 4.6-4.6h11.1c2.5 0 4.6 2 4.6 4.6V65l-7.5 1.7v-7.6h-5.4v10.4h8.3zm31.6 3.7l6.9 21.6h-7.5l-.1-.2-5.5-17.7h-.7v17.9H286V51.7h7.4v17.8h.6l5.7-17.8h7.5l-7 21.5zm19-21.5h7.4v43.1h-7.4V51.7z"/></symbol><symbol id="logotype-mobile" viewBox="0 0 225.81 30.04"><title>logotype-mobile</title><path d="M-.003 13.175L3.49 9.682l3.494 3.493-3.494 3.493zm215.127.007l3.493-3.493 3.493 3.493-3.493 3.493z"/><path d="M28.6 13.3h1.28V8.21h2V6.94H28.6v6.36zm9.11.93V6.48A2.79 2.79 0 0 0 36.14 4a2.73 2.73 0 0 1 .29 1.21V13a2.73 2.73 0 0 1-1 2.15 3.18 3.18 0 0 1 1 2.26V26a2.83 2.83 0 0 1-2.79 2.79h-8.28V30h9.56a2.83 2.83 0 0 0 2.79-2.79v-8.57a3.18 3.18 0 0 0-1-2.26 2.73 2.73 0 0 0 1-2.15z"/><path d="M28.6 24.21h1.28v-5.12h2v-1.28H28.6v6.4zm20.18 0h1.27v-16h2V6.94h-3.27v17.27z"/><path d="M56.31 4a2.7 2.7 0 0 1 .29 1.21V26a2.83 2.83 0 0 1-2.79 2.79H47a2.72 2.72 0 0 1-1.21-.29 2.79 2.79 0 0 0 2.53 1.5h6.78a2.83 2.83 0 0 0 2.79-2.79V6.48A2.79 2.79 0 0 0 56.31 4zm12.64 9.3h1.28V8.21h2V6.94h-3.28v6.36zm7.49 5.52A2.73 2.73 0 0 0 78 16.34V6.48A2.78 2.78 0 0 0 76.45 4a2.78 2.78 0 0 1 .29 1.23v9.86a2.73 2.73 0 0 1-1.58 2.48L77 28.77h-3.41L73.8 30h4.52zm-5.75-1.01h-1.74v10.96h-3.24v1.27h4.52V19.09h.67l-.21-1.28zm17.84 6.4h1.27v-16h2V6.94h-3.27v17.27z"/><path d="M96.06 4a2.71 2.71 0 0 1 .29 1.21V26a2.83 2.83 0 0 1-2.79 2.79h-6.77a2.72 2.72 0 0 1-1.21-.29 2.79 2.79 0 0 0 2.49 1.5h6.78a2.83 2.83 0 0 0 2.79-2.79V6.48A2.78 2.78 0 0 0 96.06 4zm12.64 20.21h1.28v-16h2V6.94h-3.28v17.27z"/><path d="M116.24 4a2.73 2.73 0 0 1 .29 1.21V26a2.83 2.83 0 0 1-2.79 2.79h-8.29V30H115a2.83 2.83 0 0 0 2.78-2.79V6.48A2.79 2.79 0 0 0 116.24 4zm12.86-.31v25.08h-3.24v1.27h4.52V3.69h-1.28zm20.11 0v25.08h-3.61l.36 1.27h4.52V3.69h-1.27zm-7.83 13.56v11.52h-3.25v1.27h4.52v-8.36l-1.27-4.43zm19.71 1.84h3.73v-1.28h-5a2.74 2.74 0 0 1-1.22-.29 2.77 2.77 0 0 0 2.49 1.57zm1.73 1.69l-1.27.3v3.13h1.27v-3.43zM169.09 4a2.71 2.71 0 0 1 .29 1.21v5.34l-3.28.76v1.57l4.55-1.05V6.48A2.79 2.79 0 0 0 169.09 4z"/><path d="M169.09 14.87a2.72 2.72 0 0 1 .29 1.21V26a2.83 2.83 0 0 1-2.79 2.79h-6.77a2.72 2.72 0 0 1-1.21-.29 2.79 2.79 0 0 0 2.48 1.5h6.77a2.83 2.83 0 0 0 2.78-2.79v-9.9a2.78 2.78 0 0 0-1.55-2.44zm-7.54-7.93v6.36h1.27V8.21h2.01V6.94h-3.28zm20.59 10.87h-.41v10.96h-3.25v1.27H183v-9.49l-.86-2.74zm9.25-14.12h-1.68l-3.8 11.86 4.21 13.22h-3.67l.35 1.12.04.15h4.55l-4.21-13.21 4.21-13.14zm10.63 0v25.08h-3.25v1.27h4.52V3.69h-1.27zm19.025 15.396l3.492-3.494 1.273 1.273-3.492 3.493zM5.92 19.085l3.493-3.493 1.273 1.273-3.493 3.493z"/><path d="M34 10.54a2.73 2.73 0 0 1-1 2.15 3.18 3.18 0 0 1 1 2.26v8.62a2.83 2.83 0 0 1-2.79 2.79h-9.54V0h9.56A2.8 2.8 0 0 1 34 2.79zm-4.55-6h-3.27v6.36h3.28zm0 10.88h-3.27v6.4h3.28zM51.4 0a2.8 2.8 0 0 1 2.79 2.79v20.77a2.83 2.83 0 0 1-2.79 2.79h-6.77a2.8 2.8 0 0 1-2.79-2.79V2.79A2.78 2.78 0 0 1 44.63 0zm-1.77 4.52h-3.27v17.27h3.28zm20.48 21.83l-1.84-11h-1.74v11H62V0h9.56a2.77 2.77 0 0 1 2.75 2.79v9.86a2.73 2.73 0 0 1-1.58 2.48l1.88 11.22zm-.3-21.83h-3.28v6.36h3.27zM91.15 0a2.8 2.8 0 0 1 2.78 2.79v20.77a2.83 2.83 0 0 1-2.78 2.79h-6.77a2.8 2.8 0 0 1-2.79-2.79V2.79A2.78 2.78 0 0 1 84.38 0zm-1.77 4.52h-3.27v17.27h3.28zM111.33 0a2.8 2.8 0 0 1 2.78 2.79v20.77a2.83 2.83 0 0 1-2.78 2.79h-9.56V0zm-1.77 4.52h-3.27v17.27h3.27zM122.17 0h4.52v26.35h-4.52zm24.61 0v26.35h-4.52L139 14.83v11.52h-4.52V0h4.48l3.31 10.8V0zm17.4 10.88a2.8 2.8 0 0 1 2.82 2.78v9.9a2.83 2.83 0 0 1-2.79 2.79h-6.81a2.8 2.8 0 0 1-2.78-2.79v-5.42l4.52-1.05v4.71h3.27v-6.4h-5a2.78 2.78 0 0 1-2.78-2.79V2.79A2.78 2.78 0 0 1 157.4 0h6.78A2.8 2.8 0 0 1 167 2.79v5.34l-4.6 1.05V4.52h-3.27v6.36zm19.3 2.26l4.22 13.21h-4.55v-.15l-3.39-10.8h-.42v11h-4.52V0h4.52v10.88h.34L183.11 0h4.59zM195.08 0h4.52v26.35h-4.52z"/></symbol><symbol id="logotype-tablet" viewBox="0 0 369.5 100.9"><g><path d="M119.9 11.4C127 9 127.6 0 120.5 0c-1.9 0-4.3 1.4-5.9 4.2L105 20.7c-.4.8-.9 1.4-1.4 2-2.5-3.4-1.7-8.5 1.7-10.7l-1.4-1.8c-7.5 4.8-5.3 18.5 7.2 18.5 10.7 0 15.6-12.7 8.8-17.3zM111.1 26c-2.1 0-3.8-.5-5.1-1.2.6-.7 1.2-1.6 1.8-2.5l6-10.4 1 .1c8.2 1.7 4.9 14-3.7 14zm3.8-16.2l2.9-4.9c2.6-4.5 5.9-1.8 4.1 1.5-1.4 2.5-3.4 3.3-7 3.4z"/><path d="M259.2 19l-.2.3c-2 2.3-4.3 4.2-6.5 5 .6-.9 1-1.9 1.5-2.7l3.9-6.7c3.3-5.6-2.1-7.5-5.7-4.3l.7-1.2h-3.6l-5.6 9.7-.2.3c-1.6 1.7-3.6 2.6-5.4 2.6l3.4-5.8c2.2-3.7.2-7.3-3.2-7.3-2.7 0-4.9 1.1-6.9 4.7l-1.7 3-1.5 2.5-.2.2c-2.6 3-5.1 5.3-6.6 5.3-.8 0-1.2-.5-.4-1.9l5.1-9c1.5-2.7.1-4.7-1.9-4.7-1.5 0-3.2.9-5 2.7l5.7-9.9h-3.6L211.4 19l-.2.2c-1.3 1.5-2.9 2.9-4.3 3.9 1.1-3.4.9-8.6 3.1-13.1l-2.7-1.4c-1.5 2-4.7 6.7-7.9 10.4l-.2.3c-2.6 3-5.1 5.3-6.6 5.3-.8 0-1.2-.5-.4-1.9l3.6-6.2c1.2-2.2.6-3.4-.5-4.8l-2-2.4c-.5-.7-.5-1.4.2-2.1l-1.8-2c-2 1.8-2.2 3.8-.9 5.5l.2.3c-1.6 2.2-3.7 5.2-6 8l-.2.3c-2.6 3-5.9 5.3-8.3 5.3-2.2 0-3.5-1.4-1.8-4.2l.3-.6c2.3 1 6.6.5 9.3-4.1l.5-.9c1.9-3.3.1-5.7-2.8-5.7s-5.2 1.5-6.7 4.1l-3.4 5.9-.2.2c-1.6 1.8-3.6 2.6-5.4 2.6l3.4-5.8c.9-1.6 1.3-2.9 1.3-4.1 0-1.8-1.2-3.2-3.2-3.2-.9 0-1.6.3-2.3.8l4.5-7.8h-3.6l-10 17.2-.2.2c-2.6 3-5.1 5.3-6.6 5.3-.8 0-1.2-.5-.4-1.9l3.6-6.2c1.2-2.2.6-3.4-.5-4.8l-2-2.4c-.5-.7-.5-1.4.2-2.1l-1.8-2c-2 1.8-2.2 3.8-.9 5.5l.3.4c-1.6 2.2-3.7 5.2-6 8l-.2.3c-2.6 3-5.1 5.3-6.6 5.3-.8 0-1.2-.5-.4-1.9l5.7-10.1h-2c.1-1.5-1.4-3.6-3.7-3.6-1.9 0-4.6 1.5-6.1 4.1l-5 8.6c-1.5 2.6-.4 5.1 2.4 5.1 1.4 0 3.2-.9 4.9-2.3.2 1.4 1.3 2.3 3.1 2.3 2.9 0 6.3-3.1 9.3-6.6 1.7-2 3-3.8 5.9-7.6l.5.6c.4.6.6 1.3.2 2l-3.8 6.5c-1.5 2.6-.4 5.1 2.4 5.1 2.1 0 4.3-1.5 6.5-3.7 0 2.4 1.8 3.8 4.1 3.8 2 0 4.3-1 6.1-3.3h.8c1.3 0 3.1-.5 4.7-1.4-.2 2.6 1.7 4.5 4.8 4.5 4 0 8-3.1 11-6.6 1.7-2 3-3.8 5.9-7.6l.5.6c.4.6.6 1.3.2 2l-3.8 6.5c-1.5 2.6-.4 5.1 2.4 5.1 2.9 0 6.3-3.1 9.3-6.6 2-2.3 3.8-4.8 5.1-6.5-1.4 3.7-.6 10.3-4 10.3-1.2 0-1.7-1.3-1.7-1.3l-2.2 1.2s.6 2.9 3.9 2.9c.3 0 .6 0 1-.1h.1c1.9-.2 3.7-1.1 5.5-2.4l-1.2 2.1h3.6l5.4-9.4c5.5-6.9 7.9-6 6.4-3.4l-4.6 8c-1.5 2.6-.4 5.1 2.4 5.1 2.1 0 4.4-1.6 6.6-3.7 0 4.5 6.3 5.4 10.1.6h.8c1.1 0 2.5-.3 3.8-.9l-6.5 11.2h3.6l10.6-18.5c4-5.4 6.5-3.4 5.5-1.8l-5.4 9.3c-.6 1-1.9 1.3-2.6 0l-2 1s.6 2.9 3.9 2.9h.2c5.2-.1 8.6-3.2 11.5-6.6-.7-.5-1.3-1-1.8-1.1zm-81-5c2.1-3.5 5.7-2.9 3.6.8l-.5.9c-1.7 2.9-4 2.8-5.3 2.4l2.2-4.1zm-45.6 5.6c-2.2 3.4-4.3 5-5.7 5-.8 0-1.2-.5-.4-1.9l5-8.7c1.9-3.3 5.7-2.5 4 .8l-2.9 4.8zm26.8 4.8c-.8 0-1.4-.5-1.4-1.4 0-.5.2-1.1.6-1.8l1.3-2.2c.3 1.5 1 2.9 2.3 3.7-.8 1.2-1.9 1.7-2.8 1.7zm3.7-3.4c-.9-.7-1.5-1.8-1.5-3.2 0-2.5 2.5-6.7 4.5-6.7.8 0 1.3.6 1.3 1.5 0 .6-.2 1.3-.7 2.1l-3.6 6.3zm73.1-1.8h-.2c-1.2 0-2.1 1-2.1 2.1 0 .4.1.9.3 1.2v.1c-1.7 2.9-5.7 2.3-3.6-1.4l2.7-4.7 1.7-2.9c2.5-4.2 5.9-2.6 3.8 1.1l-2.6 4.5z"/></g><path d="M-.003 73.233l5.728-5.726 5.727 5.728-5.729 5.727zm351.997-.019l5.729-5.727 5.726 5.729-5.728 5.726z"/><g><path d="M46.8 73.5h2.1v-8.3h3.3v-2.1h-5.4zM61.7 75V62.3c0-1.8-1.1-3.3-2.6-4.1.3.6.5 1.3.5 2v12.7c0 1.4-.6 2.6-1.7 3.5.9 1 1.7 2.1 1.7 3.7v14.1c0 2.5-2.1 4.6-4.6 4.6H41.5v2.1h15.6c2.5 0 4.6-2.1 4.6-4.6V82.2c0-1.6-.7-2.7-1.7-3.7 1.1-.8 1.7-2.1 1.7-3.5z"/><path d="M46.8 91.3h2.1V83h3.3v-2.1h-5.4z"/></g><g><path d="M79.8 91.3h2.1V65.2h3.3v-2.1h-5.4z"/><path d="M92.1 58.3c.3.6.5 1.3.5 2v34c0 2.5-2.1 4.6-4.6 4.6H77c-.7 0-1.4-.2-2-.5.7 1.5 2.3 2.6 4.1 2.6h11.1c2.5 0 4.6-2.1 4.6-4.6v-34c-.1-1.9-1.2-3.4-2.7-4.1z"/></g><path d="M112.8 73.5h2.1v-8.3h3.3v-2.1h-5.4zm12.3 9c1.6-.7 2.6-2.3 2.6-4.1V62.3c0-1.8-1.1-3.4-2.6-4.1.3.6.5 1.3.5 2v16.1c0 1.7-1 3.3-2.6 4.1l3.1 18.4h-5.7l.4 2.1h7.4l-3.1-18.4zm-9.4-1.6h-2.9v17.9h-5.3v2.1h7.4V83h1.1z"/><g><path d="M144.8 91.3h2.1V65.2h3.3v-2.1h-5.4z"/><path d="M157.2 58.3c.3.6.5 1.3.5 2v34c0 2.5-2.1 4.6-4.6 4.6H142c-.7 0-1.4-.2-2-.5.7 1.5 2.3 2.6 4.1 2.6h11.1c2.5 0 4.6-2.1 4.6-4.6v-34c-.1-1.9-1.1-3.4-2.6-4.1z"/></g><g><path d="M177.9 91.3h2V65.2h3.3v-2.1h-5.3z"/><path d="M190.2 58.3c.3.6.5 1.3.5 2v34c0 2.5-2.1 4.6-4.6 4.6h-13.6v2.1h15.6c2.5 0 4.6-2.1 4.6-4.6v-34c.1-1.9-1-3.4-2.5-4.1z"/></g><path d="M211.2 57.8v41h-5.3v2.1h7.4V57.8zm32.9 0v41h-5.9l.6 2.1h7.4V57.8zm-12.8 22.1v18.9H226v2.1h7.4V87.2z"/><g><path d="M263.6 83h6.1v-2.1h-8.2c-.7 0-1.4-.2-2-.5.7 1.5 2.3 2.6 4.1 2.6zm2.8 2.7l-2.1.5v5.1h2.1zm10.3-27.4c.3.6.5 1.3.5 2V69l-5.4 1.2v2.6l7.5-1.7v-8.7c-.1-1.9-1.1-3.4-2.6-4.1z"/><path d="M276.7 76.1c.3.6.5 1.3.5 2v16.2c0 2.5-2.1 4.6-4.6 4.6h-11.1c-.7 0-1.4-.2-2-.5.7 1.5 2.3 2.6 4.1 2.6h11.1c2.5 0 4.6-2.1 4.6-4.6V80.1c-.1-1.8-1.1-3.3-2.6-4zm-12.4-13v10.4h2.1v-8.3h3.3v-2.1z"/></g><path d="M298 80.9h-.7v17.9H292v2.1h7.4V85.4zm15.2-23.1h-2.8l-6.2 19.4 6.9 21.6h-6l.5 1.8.1.3h7.5l-6.9-21.6zm17.3 0v41h-5.3v2.1h7.4V57.8zm31.1 25.102l5.727-5.728 2.05 2.05-5.726 5.729zm-351.923.1l5.728-5.728 2.05 2.05-5.727 5.728z"/><path d="M55.6 69c0 1.4-.6 2.6-1.7 3.5.9 1 1.7 2.1 1.7 3.7v14.1c0 2.5-2.1 4.6-4.6 4.6H35.4V51.7H51c2.5 0 4.6 2 4.6 4.6V69zm-7.4-9.9h-5.4v10.4h5.4V59.1zm0 17.8h-5.4v10.5h5.4V76.9zm35.9-25.2c2.5 0 4.6 2 4.6 4.6v34c0 2.5-2.1 4.6-4.6 4.6H73c-2.5 0-4.6-2.1-4.6-4.6v-34c0-2.5 2-4.6 4.6-4.6h11.1zm-2.9 7.4h-5.4v28.3h5.4V59.1zm33.5 35.7l-3-17.9h-2.8v17.9h-7.4V51.7h15.6c2.5 0 4.5 2 4.5 4.6v16.1c0 1.7-1 3.3-2.6 4.1l3.1 18.4h-7.4zm-.5-35.7h-5.4v10.4h5.4V59.1zm34.9-7.4c2.5 0 4.6 2 4.6 4.6v34c0 2.5-2.1 4.6-4.6 4.6H138c-2.5 0-4.6-2.1-4.6-4.6v-34c0-2.5 2-4.6 4.6-4.6h11.1zm-2.9 7.4h-5.4v28.3h5.4V59.1zm36-7.4c2.5 0 4.6 2 4.6 4.6v34c0 2.5-2.1 4.6-4.6 4.6h-15.6V51.7h15.6zm-2.9 7.4h-5.4v28.3h5.4V59.1zm20.6-7.4h7.4v43.1h-7.4V51.7zm40.3 0v43.1h-7.4L227.4 76v18.8H220V51.7h7.3l5.4 17.7V51.7h7.5zm28.4 17.8c2.5 0 4.6 2 4.6 4.6v16.2c0 2.5-2.1 4.6-4.6 4.6h-11.1c-2.5 0-4.6-2.1-4.6-4.6v-8.9l7.4-1.7v7.7h5.4V76.9h-8.2c-2.5 0-4.6-2-4.6-4.6v-16c0-2.5 2-4.6 4.6-4.6h11.1c2.5 0 4.6 2 4.6 4.6V65l-7.5 1.7v-7.6h-5.4v10.4h8.3zm31.6 3.7l6.9 21.6h-7.5l-.1-.2-5.5-17.7h-.7v17.9H286V51.7h7.4v17.8h.6l5.7-17.8h7.5l-7 21.5zm19-21.5h7.4v43.1h-7.4V51.7z"/></symbol><symbol id="mustache-icon" viewBox="0 0 45 12.9"><path d="M22.5 8.2c1.2 1.7 3.6 4.4 8.8 4.7 7.1.3 13.7-5.2 13.7-7.3-2.8 2.5-7.4 2.7-9.9 1.7C31.3 5.8 32 2.8 29.2.9c-1.6-1.1-3.8-1.2-5.7 0-.3.2-.7.5-1 .8-.3-.3-.7-.6-1-.8-1.9-1.2-4.1-1.1-5.7 0-2.8 2-2.1 4.9-5.9 6.4-2.5 1-7.1.8-9.9-1.7 0 2.1 6.5 7.6 13.7 7.3 5.2-.2 7.6-3 8.8-4.7z"/></symbol><symbol id="scissors-icon" viewBox="0 0 23 20"><path d="M8.5 4c0-2.2-1.8-4-4-4s-4 1.8-4 4 1.8 4 4 4c.6 0 1.1-.1 1.6-.4L8.5 10l-2.4 2.4c-.5-.3-1-.4-1.6-.4-2.2 0-4 1.8-4 4s1.8 4 4 4 4-1.8 4-4c0-.6-.1-1.1-.4-1.6l2.4-2.4 7 7h4L8.1 5.6c.3-.5.4-1 .4-1.6zm-4 2c-1.1 0-2-.9-2-2s.9-2 2-2 2 .9 2 2-.9 2-2 2zm0 12c-1.1 0-2-.9-2-2s.9-2 2-2 2 .9 2 2-.9 2-2 2zm6-8.5c.3 0 .5.2.5.5s-.2.5-.5.5-.5-.2-.5-.5.2-.5.5-.5zm11-8.5h-4l-6 6 2 2 8-8z"/></symbol><symbol id="slider-chair" viewBox="0 0 94.2 88.6"><path d="M87.2 22.4c-.6 1.7-1.1 3.5-1.7 5.2 3 5.8 4.7 12.4 4.7 19.4 0 14.2-7 26.9-17.6 34.7 1.2.7 2.2 1.6 3.1 2.7C86.9 75.8 94.2 62.2 94.2 47c0-9-2.6-17.4-7-24.6zM9.5 70.3h1.3C6.5 63.6 4 55.7 4 47.1 4 23.3 23.3 4 47.1 4 53.9 4 60.3 5.6 66 8.4c.7-1.2 1.5-2.3 2.4-3.3C62 1.9 54.8 0 47.1 0 21.1 0 0 21.1 0 47.1c0 8.5 2.3 16.5 6.2 23.4 1.2-.1 2.3-.2 3.3-.2z"/><path d="M53.5 82c.4-6.1-.9-14 .7-19.1 4.5-.1 9.6.4 13.2-.7 8.2-14.8 12-34 18.4-50.6V9c-.8-3-3.9-3.7-6.7-4.6h-.7C67.8 7.9 66.5 20.5 64 32.1c-15.8-4.2-32.3-.1-32.9 15.1-4.5.1-8 1.2-9.9 3.9-.6 6.7 1.6 10.7 6.6 11.8-1.2 5.3-3.6 9.5-7.2 12.5-6.4.6-15.6-1.6-19.1 2V80c3.2 3.9 12.9 1.2 19.1 2 6.6-3.9 8.5-12.6 11.8-19.7 4.7.4 10.9-.8 14.5.7v19.7c-7.8.5-15.4 1.2-19.1 5.9h44.7c-3.2-5.3-12.4-4.6-19-6.6zM37.7 47.2c.7-11.7 15.4-11.7 25.6-8.5.1 4.7-.5 10.2 1.3 13.2-7-1-17-4.5-26.9-4.7z"/></symbol><symbol id="slider-scissors" viewBox="0 0 94.9 94.2"><path clip-rule="evenodd" d="M90.3 28.4c-2.1-4.8-5-9.3-8.5-13.1-.6 1.3-1.3 2.5-2 3.8 2.6 3 4.7 6.4 6.4 10 1.4-.3 2.7-.5 4.1-.7zM90 43.6c.1 1.2.2 2.3.2 3.5 0 23.8-19.3 43.1-43.1 43.1-.8 0-1.6 0-2.3-.1.1.6.2 1.2.2 1.8 0 .8-.2 1.5-.4 2.2.8 0 1.7.1 2.5.1 26 0 47.1-21.1 47.1-47.1 0-2.1-.2-4.1-.4-6.2-1.2 1-2.5 1.9-3.8 2.7zM4 47.1C4 23.3 23.3 4 47.1 4 55 4 62.3 6.1 68.7 9.8c1.1-.9 2.2-1.7 3.4-2.6C64.8 2.6 56.2 0 47.1 0 21.1 0 0 21.1 0 47.1c0 19.8 12.3 36.8 29.7 43.7-.4-1.5-.6-3.1-.6-4.6C14.3 79.4 4 64.5 4 47.1z"/><path clip-rule="evenodd" d="M38.8 84.9c7.7-2.7 16.3-9.7 14.5-19.8-.9-5.1-4.5-5-7.3-9.3 14.4-12 24.2-28.7 33-46.3h-2c-7.4 5.7-21.9 17-28.4 26.4-2.6 3.8-4.6 9.3-7.3 13.9-4.5 7.7-15.1 21.2-6.6 31.1-1.4 4.6-1.2 12.4 4 12.6 3.3-1.7-1.3-4.6.1-8.6zm8.3-38.8c1.4 0 2.6 1.2 2.6 2.6s-1.2 2.6-2.6 2.6-2.6-1.2-2.6-2.6 1.2-2.6 2.6-2.6zM36.8 75c-1.9-9 7-16.9 11.9-9.3.2 7.5-6.2 15.8-11.9 9.3z"/><path clip-rule="evenodd" d="M56 51.2c14-5.2 30.6-7.8 39-18.5-9.4 1.4-18.1 3.5-27.8 4.6-2.1 6.3-7 9.7-11.2 13.9zM12.3 40c-4.2 12.2 8.4 16 21.8 13.9 3.8-4.8 5.8-10 2-15.9-4.9-7.5-20.9-6.4-23.8 2zm5.3 7.2c-5.1-10.8 12.9-11 14.6-5.2 2.1 7.6-9.1 8-14.6 5.2z"/></symbol><symbol id="slider-stamp" viewBox="0 0 94.2 92"><circle cx="47.1" cy="17.3" r="9.1"/><path d="M67.5 26.4H26.7c-1.6 0-2.8 1.3-2.8 2.8v4.5c0 1.6 1.3 2.8 2.8 2.8h.8v45.4h-.8c-1.6 0-2.8 1.3-2.8 2.8v4.5c0 1.6 1.3 2.8 2.8 2.8h40.8c1.6 0 2.8-1.3 2.8-2.8v-4.5c0-1.5-1.3-2.8-2.8-2.8h-.8V36.5h.8c1.6 0 2.8-1.3 2.8-2.8v-4.5c0-1.5-1.3-2.8-2.8-2.8zM33.7 36.5h13.2L33.7 49.7V36.5zm26.8 45.4H47l13.5-13.5v13.5zm0-28.7L33.7 80V64.9l26.8-26.8v15.1z"/><path d="M47.1 0C21.1 0 0 21.1 0 47.1c0 15.4 7.4 29.1 18.9 37.7v-.1c0-1.5.4-2.9 1.2-4.1C10.3 72.7 4 60.6 4 47.1 4 23.3 23.3 4 47.1 4s43.1 19.3 43.1 43.1c0 13.5-6.3 25.6-16.1 33.5.7 1.2 1.2 2.6 1.2 4.1v.1c11.5-8.6 18.9-22.3 18.9-37.7C94.2 21.1 73.1 0 47.1 0z"/></symbol><symbol id="sprite"/></symbol><symbol id="user" viewBox="0 0 15 15"><path d="M13.31 11.5a2.38 2.38 0 0 0-.87-1.24 11.26 11.26 0 0 0-2.7-1.15 3.6 3.6 0 0 1-.65-.28.76.76 0 0 1-.29-.52 2.59 2.59 0 0 1 0-.31 6.73 6.73 0 0 0 1.07-3.64 2.14 2.14 0 0 0-2.41-2.45A2.14 2.14 0 0 0 5 4.36a6.64 6.64 0 0 0 1.23 3.73v.21a.75.75 0 0 1-.29.52 3.57 3.57 0 0 1-.65.28 11.21 11.21 0 0 0-2.7 1.13 2.46 2.46 0 0 0-.87 1.27 5.12 5.12 0 0 0-.22 1.61h12.03a5.12 5.12 0 0 0-.22-1.61z"/></symbol></svg>